<svg width="474" height="321" viewBox="0 0 474 321" fill="none" xmlns="http://www.w3.org/2000/svg">
<g id="animation">
<circle id="Ellipse 36" cx="338.275" cy="81.2748" r="4.25875" transform="rotate(-16.1387 338.275 81.2748)" fill="#EFCE88"/>
<path id="M" d="M167.406 163.65C167.406 139.33 167.738 122.394 167.738 122.198H167.406C167.252 122.372 162.991 132.121 156.83 145.237L143.98 171.966H130.953L118.435 145.562C111.921 132.121 107.682 122.372 107.682 122.198H107.042C107.042 122.372 107.373 139.33 107.373 163.65V199H86V87H110.42L137.908 142.37H138.394L165.574 87H189V199H167.362L167.406 163.65Z" fill="#5FB2C4"/>
<path id="A" d="M229.252 176.613L222.152 199H200L238.012 87H264.009L302 199H279.302L272.093 176.613H229.252ZM257.652 130.688C254.594 120.917 251.208 109.886 251.098 109.713H250.618C250.465 109.886 247.079 120.765 243.867 130.515L235.369 157.071H265.954L257.652 130.688Z" fill="#5FB2C4"/>
<path id="D" d="M353.587 87C385.96 87 407 108.935 407 143.467C407 177.999 386.114 199 354.29 199H313V87H353.587ZM352.467 179.019C370.74 179.019 385.411 168.616 385.411 143.814C385.411 117.883 370.849 106.894 352.467 106.894H334.677V178.911L352.467 179.019Z" fill="#5FB2C4"/>
<g id="complete-logo">
<g id="logo">
<path id="top" d="M395.736 17.54C395.703 21.5864 394.804 30.4864 386.096 44.3596C381.289 52.0404 378.552 54.1296 374.812 59.0698C373.189 61.2631 371.681 63.5413 370.296 65.8951C368.335 69.1004 366.564 72.4202 364.992 75.8371C357.74 74.6739 350.412 74.056 343.07 73.9886C335.362 73.9397 327.66 74.3992 320.011 75.3638C317.872 70.794 315.876 67.3029 314.63 65.2475C313.085 62.6179 311.557 60.4502 311.557 60.4502C311.105 59.8308 310.631 59.1671 310.093 58.481C306.346 53.5683 303.62 51.5009 298.699 43.7856C295.776 39.1874 289.651 29.5929 288.882 17.0067C288.792 15.2995 288.805 13.5882 288.923 11.8827C288.973 5.769 312.95 1.08024 342.373 1.31791C371.795 1.55558 395.693 6.69707 395.644 12.7448L395.646 12.5688C395.778 14.2223 395.809 15.8826 395.736 17.54Z" fill="#F4CF7E"/>
<path id="handle" d="M410.553 27.242C410.293 25.8942 409.788 24.6049 409.062 23.4376C408.396 22.3948 407.543 21.4816 406.547 20.7429C405.552 20.0616 404.432 19.5831 403.25 19.3352C401.984 19.085 400.682 19.0745 399.412 19.3042C398.418 19.4632 397.498 19.9227 396.776 20.6201C396.533 20.8748 396.344 21.1749 396.218 21.503C396.093 21.8311 396.034 22.1807 396.046 22.5315C396.057 22.8823 396.139 23.2274 396.285 23.5467C396.432 23.866 396.641 24.1531 396.9 24.3915C397.102 24.5424 397.335 24.6472 397.583 24.6984C397.83 24.7497 398.086 24.7462 398.332 24.6881C398.778 24.6097 399.181 24.3711 399.462 24.0177C399.604 23.8462 399.703 23.6438 399.751 23.4269C399.798 23.2101 399.794 22.985 399.737 22.7704C399.695 22.5835 399.622 22.405 399.52 22.2425C399.413 22.0701 399.251 21.9378 399.06 21.8662C399.391 21.438 399.826 21.1017 400.326 20.8899C400.868 20.6669 401.431 20.4953 402.006 20.3774C402.842 20.212 403.706 20.2567 404.52 20.5073C405.396 20.7692 406.206 21.217 406.891 21.8198C407.668 22.5125 408.318 23.3336 408.813 24.2467C409.413 25.298 409.829 26.4429 410.043 27.6325C410.506 29.547 410.375 31.5562 409.665 33.3947C408.974 35.0609 407.914 36.5509 406.564 37.7539C405.164 39.0202 403.56 40.0446 401.819 40.7846C400.104 41.5387 398.318 42.1262 396.489 42.539C393.905 43.0507 391.384 43.8388 388.97 44.8896C387.017 45.7185 385.219 46.8674 383.649 48.2883C382.314 49.4726 381.3 50.9723 380.702 52.6487C380.123 54.3341 380.017 56.1445 380.395 57.8855C380.631 59.3643 381.348 60.7254 382.437 61.76C382.901 62.1856 383.462 62.4925 384.072 62.654C384.681 62.8156 385.322 62.8269 385.937 62.6871C386.41 62.6569 386.866 62.5 387.257 62.233C387.647 61.966 387.957 61.5988 388.155 61.1705C388.51 60.3184 388.602 59.3806 388.419 58.4764C387.971 58.8855 387.489 59.2557 386.977 59.5827C386.392 59.8801 385.766 60.0893 385.119 60.2034C384.649 60.3391 384.153 60.3642 383.671 60.2766C383.19 60.189 382.735 59.9911 382.344 59.6987C381.645 59.1538 381.179 58.3673 381.038 57.496C380.757 56.4092 380.766 55.2683 381.065 54.1862C381.397 53.1985 381.947 52.2968 382.674 51.5466C383.468 50.7355 384.381 50.0482 385.382 49.5079C386.509 48.8909 387.678 48.351 388.88 47.8921C390.141 47.42 391.446 46.9702 392.795 46.5865L396.818 45.4792C399.603 44.8097 402.252 43.6747 404.654 42.1227C406.425 40.9423 407.938 39.4185 409.102 37.6428C410.087 36.0999 410.691 34.347 410.863 32.5275C411.019 30.7601 410.914 28.9795 410.553 27.242V27.242Z" fill="#F4CF7E"/>
<path id="bottom" d="M406.285 95.153C406.143 96.1955 405.732 97.1897 405.09 98.0503C404.448 98.9109 403.592 99.6123 402.597 100.094C393.957 94.2792 370.494 89.9539 342.936 89.7313C315.379 89.5087 291.871 93.3935 283.117 99.1291C282.129 98.6311 281.285 97.916 280.657 97.0451C280.028 96.1742 279.634 95.1735 279.508 94.1289C279.52 93.5288 279.673 92.9387 279.957 92.4008C282.914 86.598 300.325 81.9102 323.489 80.3452C329.616 79.9465 336.155 79.7345 343.039 79.7901C349.358 79.8411 355.436 80.1143 361.188 80.5682C384.91 82.4101 402.786 87.4033 405.822 93.3157C406.118 93.889 406.276 94.5162 406.285 95.153V95.153Z" fill="#F4CF7E"/>
</g>
<g id="batter">
<path id="B" d="M115.04 262.623C119.784 263.021 124.19 265.209 127.346 268.733C130.501 272.258 132.163 276.848 131.987 281.551C131.987 294.004 123.559 301 109.2 301H86V229H106.177C119.391 229 126.995 235.792 126.995 246.275C126.995 256.759 120.239 261.287 115.04 262.328V262.623ZM106.91 261.196C116.07 261.196 123.147 256.464 123.147 246.592C123.147 237.74 116.597 232.6 105.673 232.6H89.9621V261.196H106.91ZM109.314 297.423C120.536 297.423 128.025 292.079 128.025 281.687C128.025 270.774 119.094 264.615 108.788 264.615H89.9621V297.4L109.314 297.423Z" fill="#D16046"/>
<path id="A_2" d="M150.681 278.766L142.129 301H138L165.947 229H170.166L198 301H193.849L185.297 278.766H150.681ZM175.497 253.362C172.82 246.57 168.193 233.415 168.079 233.302H167.875C167.875 233.415 163.043 246.366 160.457 253.272L152.019 275.166H183.777L175.497 253.362Z" fill="#D16046"/>
<path id="T" d="M231.932 232.691V301H228.046V232.691H205V229H255V232.691H231.932Z" fill="#D16046"/>
<path id="T_2" d="M288.493 232.691V301H284.53V232.691H261V229H312V232.691H288.493Z" fill="#D16046"/>
<path id="E" d="M318 229H359V232.691H321.762V261.083H351.476V264.796H321.762V297.287H358.91V301H318V229Z" fill="#D16046"/>
<path id="R" d="M386.131 270.026C384.61 270.14 380.74 270.14 379.421 270.14H369.87V301H366V229H382.821C397.874 229 406.597 236.902 406.597 250.079C406.597 262.011 399.887 267.876 390.247 269.415L407 301H402.526L386.131 270.026ZM383.581 266.63C394.765 266.63 402.705 262.623 402.705 250.079C402.705 238.26 394.966 232.691 382.575 232.691H369.87V266.653L383.581 266.63Z" fill="#D16046"/>
</g>
</g>
<path id="shape-covering-d" d="M311 82H340V93L311 115V82Z" fill="#FDF7F1"/>
<path id="tea" d="M269.595 38.7334C269.595 38.7334 268.076 34.1497 264.532 47.9006C260.987 61.6516 261.494 77.4396 264.025 84.5697L301.494 196.614V198.651L302 255.692V300" stroke="#987258" stroke-width="2"/>
<circle id="ellipse" cx="20.5" cy="194.5" r="20.5" fill="#5FB2C4"/>
<ellipse id="flattened" cx="265.5" cy="265" rx="36.5" ry="26" fill="#5FB2C4"/>
<path id="bottom-of-hat" d="M34.8909 222.276C20.2142 249.225 34.8909 287.369 57.5018 305.096C105.891 343.07 206.925 300.537 286.404 267.055C359.413 236.431 401.161 206.862 437.121 226.631C463.069 240.922 473.08 273.724 473.932 273.248C474.783 272.771 463.716 226.257 430.515 208.597C392.75 188.454 355.36 220.915 251.602 255.622C174.541 281.414 103.881 304.178 69.3862 272.431C56.7186 260.794 45.9579 239.051 52.8025 221.153C59.6471 203.255 83.4499 191.482 112.156 193.388C78.1718 187.909 47.1158 199.818 34.8909 222.276Z" fill="#5FB2C4"/>
<ellipse id="Ellipse 3" cx="263.504" cy="50.5" rx="112.5" ry="20.5" fill="#5FB2C4"/>
<g id="Mask Group">
<mask id="mask0_19_118" style="mask-type:alpha" maskUnits="userSpaceOnUse" x="86" y="229" width="321" height="72">
<g id="batter_2">
<path id="B_2" d="M115.04 262.623C119.784 263.021 124.19 265.209 127.346 268.733C130.501 272.258 132.163 276.848 131.987 281.551C131.987 294.004 123.559 301 109.2 301H86V229H106.177C119.391 229 126.995 235.792 126.995 246.275C126.995 256.759 120.239 261.287 115.04 262.328V262.623ZM106.91 261.196C116.07 261.196 123.147 256.464 123.147 246.592C123.147 237.74 116.597 232.6 105.673 232.6H89.9621V261.196H106.91ZM109.314 297.423C120.536 297.423 128.025 292.079 128.025 281.687C128.025 270.774 119.094 264.615 108.788 264.615H89.9621V297.4L109.314 297.423Z" fill="#94705A"/>
<path id="A_3" d="M150.681 278.766L142.129 301H138L165.947 229H170.166L198 301H193.849L185.297 278.766H150.681ZM175.497 253.362C172.82 246.57 168.193 233.415 168.079 233.302H167.875C167.875 233.415 163.043 246.366 160.457 253.272L152.019 275.166H183.777L175.497 253.362Z" fill="#94705A"/>
<path id="T_3" d="M231.932 232.691V301H228.046V232.691H205V229H255V232.691H231.932Z" fill="#94705A"/>
<path id="T_4" d="M288.493 232.691V301H284.53V232.691H261V229H312V232.691H288.493Z" fill="#94705A"/>
<path id="E_2" d="M318 229H359V232.691H321.762V261.083H351.476V264.796H321.762V297.287H358.91V301H318V229Z" fill="#94705A"/>
<path id="R_2" d="M386.131 270.026C384.61 270.14 380.74 270.14 379.421 270.14H369.87V301H366V229H382.821C397.874 229 406.597 236.902 406.597 250.079C406.597 262.011 399.887 267.876 390.247 269.415L407 301H402.526L386.131 270.026ZM383.581 266.63C394.765 266.63 402.705 262.623 402.705 250.079C402.705 238.26 394.966 232.691 382.575 232.691H369.87V266.653L383.581 266.63Z" fill="#94705A"/>
</g>
</mask>
<g mask="url(#mask0_19_118)">
<g id="batter_3">
<path id="B_3" d="M115.04 262.623C119.784 263.021 124.19 265.209 127.346 268.733C130.501 272.258 132.163 276.848 131.987 281.551C131.987 294.004 123.559 301 109.2 301H86V229H106.177C119.391 229 126.995 235.792 126.995 246.275C126.995 256.759 120.239 261.287 115.04 262.328V262.623ZM106.91 261.196C116.07 261.196 123.147 256.464 123.147 246.592C123.147 237.74 116.597 232.6 105.673 232.6H89.9621V261.196H106.91ZM109.314 297.423C120.536 297.423 128.025 292.079 128.025 281.687C128.025 270.774 119.094 264.615 108.788 264.615H89.9621V297.4L109.314 297.423Z" fill="#94705A"/>
<path id="A_4" d="M150.681 278.766L142.129 301H138L165.947 229H170.166L198 301H193.849L185.297 278.766H150.681ZM175.497 253.362C172.82 246.57 168.193 233.415 168.079 233.302H167.875C167.875 233.415 163.043 246.366 160.457 253.272L152.019 275.166H183.777L175.497 253.362Z" fill="#94705A"/>
<path id="T_5" d="M231.932 232.691V301H228.046V232.691H205V229H255V232.691H231.932Z" fill="#94705A"/>
<path id="T_6" d="M288.493 232.691V301H284.53V232.691H261V229H312V232.691H288.493Z" fill="#94705A"/>
<path id="E_3" d="M318 229H359V232.691H321.762V261.083H351.476V264.796H321.762V297.287H358.91V301H318V229Z" fill="#94705A"/>
<path id="R_3" d="M386.131 270.026C384.61 270.14 380.74 270.14 379.421 270.14H369.87V301H366V229H382.821C397.874 229 406.597 236.902 406.597 250.079C406.597 262.011 399.887 267.876 390.247 269.415L407 301H402.526L386.131 270.026ZM383.581 266.63C394.765 266.63 402.705 262.623 402.705 250.079C402.705 238.26 394.966 232.691 382.575 232.691H369.87V266.653L383.581 266.63Z" fill="#94705A"/>
</g>
<path id="liquid-blocker" d="M512.427 254.785C466.35 244.841 467.401 242.899 415.972 242.899C364.542 242.899 364.559 255.45 313.13 255.45C261.701 255.45 261.701 242.899 210.289 242.899C158.877 242.899 158.86 255.45 107.431 255.45C56.0015 255.45 44.5164 233.729 -1.72918 243.549C-24.3607 248.347 18.7002 260.212 18.4461 271.182C18.192 282.153 -10.5717 282.006 -10.8258 292.977C-11.0799 303.947 17.6838 304.051 17.4297 315.036C17.1756 326.022 -11.5881 325.882 -11.8422 336.853C-12.0963 347.824 -14.146 348.363 8.4855 353.235C54.2229 363.113 53.1557 365.122 104.212 365.122C155.269 365.122 155.269 352.571 206.325 352.571C257.381 352.571 257.398 365.122 308.455 365.122C359.511 365.122 359.511 352.571 410.585 352.571C461.658 352.571 473.092 374.225 518.999 364.479C541.631 359.68 498.942 347.72 499.552 336.757C500.162 325.793 528.943 326.096 529.57 315.125C530.196 304.154 501.348 303.859 501.958 292.91C502.568 281.961 525.673 283.276 531.568 272.615C536.752 263.379 535.058 259.687 512.427 254.785Z" fill="#E3CEC1"/>
</g>
</g>
<g id="Mask Group_2">
<mask id="mask1_19_118" style="mask-type:alpha" maskUnits="userSpaceOnUse" x="86" y="229" width="321" height="72">
<g id="Mask Group_3">
<mask id="mask2_19_118" style="mask-type:alpha" maskUnits="userSpaceOnUse" x="86" y="229" width="321" height="72">
<g id="batter_4">
<path id="B_4" d="M115.04 262.623C119.784 263.021 124.19 265.209 127.346 268.733C130.501 272.258 132.163 276.848 131.987 281.551C131.987 294.004 123.559 301 109.2 301H86V229H106.177C119.391 229 126.995 235.792 126.995 246.275C126.995 256.759 120.239 261.287 115.04 262.328V262.623ZM106.91 261.196C116.07 261.196 123.147 256.464 123.147 246.592C123.147 237.74 116.597 232.6 105.673 232.6H89.9621V261.196H106.91ZM109.314 297.423C120.536 297.423 128.025 292.079 128.025 281.687C128.025 270.774 119.094 264.615 108.788 264.615H89.9621V297.4L109.314 297.423Z" fill="#94705A"/>
<path id="A_5" d="M150.681 278.766L142.129 301H138L165.947 229H170.166L198 301H193.849L185.297 278.766H150.681ZM175.497 253.362C172.82 246.57 168.193 233.415 168.079 233.302H167.875C167.875 233.415 163.043 246.366 160.457 253.272L152.019 275.166H183.777L175.497 253.362Z" fill="#94705A"/>
<path id="T_7" d="M231.932 232.691V301H228.046V232.691H205V229H255V232.691H231.932Z" fill="#94705A"/>
<path id="T_8" d="M288.493 232.691V301H284.53V232.691H261V229H312V232.691H288.493Z" fill="#94705A"/>
<path id="E_4" d="M318 229H359V232.691H321.762V261.083H351.476V264.796H321.762V297.287H358.91V301H318V229Z" fill="#94705A"/>
<path id="R_4" d="M386.131 270.026C384.61 270.14 380.74 270.14 379.421 270.14H369.87V301H366V229H382.821C397.874 229 406.597 236.902 406.597 250.079C406.597 262.011 399.887 267.876 390.247 269.415L407 301H402.526L386.131 270.026ZM383.581 266.63C394.765 266.63 402.705 262.623 402.705 250.079C402.705 238.26 394.966 232.691 382.575 232.691H369.87V266.653L383.581 266.63Z" fill="#94705A"/>
</g>
</mask>
<g mask="url(#mask2_19_118)">
<g id="batter_5">
<path id="B_5" d="M115.04 262.623C119.784 263.021 124.19 265.209 127.346 268.733C130.501 272.258 132.163 276.848 131.987 281.551C131.987 294.004 123.559 301 109.2 301H86V229H106.177C119.391 229 126.995 235.792 126.995 246.275C126.995 256.759 120.239 261.287 115.04 262.328V262.623ZM106.91 261.196C116.07 261.196 123.147 256.464 123.147 246.592C123.147 237.74 116.597 232.6 105.673 232.6H89.9621V261.196H106.91ZM109.314 297.423C120.536 297.423 128.025 292.079 128.025 281.687C128.025 270.774 119.094 264.615 108.788 264.615H89.9621V297.4L109.314 297.423Z" fill="#94705A"/>
<path id="A_6" d="M150.681 278.766L142.129 301H138L165.947 229H170.166L198 301H193.849L185.297 278.766H150.681ZM175.497 253.362C172.82 246.57 168.193 233.415 168.079 233.302H167.875C167.875 233.415 163.043 246.366 160.457 253.272L152.019 275.166H183.777L175.497 253.362Z" fill="#94705A"/>
<path id="T_9" d="M231.932 232.691V301H228.046V232.691H205V229H255V232.691H231.932Z" fill="#94705A"/>
<path id="T_10" d="M288.493 232.691V301H284.53V232.691H261V229H312V232.691H288.493Z" fill="#94705A"/>
<path id="E_5" d="M318 229H359V232.691H321.762V261.083H351.476V264.796H321.762V297.287H358.91V301H318V229Z" fill="#94705A"/>
<path id="R_5" d="M386.131 270.026C384.61 270.14 380.74 270.14 379.421 270.14H369.87V301H366V229H382.821C397.874 229 406.597 236.902 406.597 250.079C406.597 262.011 399.887 267.876 390.247 269.415L407 301H402.526L386.131 270.026ZM383.581 266.63C394.765 266.63 402.705 262.623 402.705 250.079C402.705 238.26 394.966 232.691 382.575 232.691H369.87V266.653L383.581 266.63Z" fill="#94705A"/>
</g>
<path id="liquid-blocker_2" d="M512.427 254.785C466.35 244.841 467.401 242.899 415.972 242.899C364.542 242.899 364.559 255.45 313.13 255.45C261.701 255.45 261.701 242.899 210.289 242.899C158.877 242.899 158.86 255.45 107.431 255.45C56.0015 255.45 44.5164 233.729 -1.72918 243.549C-24.3607 248.347 18.7002 260.212 18.4461 271.182C18.192 282.153 -10.5717 282.006 -10.8258 292.977C-11.0799 303.947 17.6838 304.051 17.4297 315.036C17.1756 326.022 -11.5881 325.882 -11.8422 336.853C-12.0963 347.824 -14.146 348.363 8.4855 353.235C54.2229 363.113 53.1557 365.122 104.212 365.122C155.269 365.122 155.269 352.571 206.325 352.571C257.381 352.571 257.398 365.122 308.455 365.122C359.511 365.122 359.511 352.571 410.585 352.571C461.658 352.571 473.092 374.225 518.999 364.479C541.631 359.68 498.942 347.72 499.552 336.757C500.162 325.793 528.943 326.096 529.57 315.125C530.196 304.154 501.348 303.859 501.958 292.91C502.568 281.961 525.673 283.276 531.568 272.615C536.752 263.379 535.058 259.687 512.427 254.785Z" fill="#E3CEC1"/>
</g>
</g>
</mask>
<g mask="url(#mask1_19_118)">
<path id="liquid-blocker_3" d="M514.427 291.795C468.35 287.615 469.401 286.798 417.972 286.798C366.542 286.798 366.559 292.074 315.13 292.074C263.701 292.074 263.701 286.798 212.289 286.798C160.877 286.798 160.86 292.074 109.431 292.074C58.0015 292.074 46.5164 282.944 0.270826 287.071C-22.3607 289.089 20.7002 294.076 20.4461 298.688C20.192 303.3 -8.57173 303.238 -8.82583 307.85C-9.07993 312.462 19.6838 312.505 19.4297 317.123C19.1756 321.742 -9.58812 321.683 -9.84221 326.294C-10.0963 330.906 -12.146 331.133 10.4855 333.181C56.2229 337.334 55.1557 338.178 106.212 338.178C157.269 338.178 152.444 326.254 203.5 326.254C254.556 326.254 310.175 373.808 315.13 347.375C338 311.223 470 393.617 412.585 332.902C463.658 332.902 475.092 342.005 520.999 337.908C543.631 335.891 500.942 330.863 501.552 326.254C502.162 321.645 530.943 321.773 531.57 317.161C532.196 312.549 503.348 312.425 503.958 307.822C504.568 303.219 527.673 303.772 533.568 299.29C538.752 295.408 537.058 293.856 514.427 291.795Z" fill="#EAE0D3"/>
</g>
</g>
<g id="Mask Group_4">
<mask id="mask3_19_118" style="mask-type:alpha" maskUnits="userSpaceOnUse" x="86" y="229" width="321" height="72">
<g id="Mask Group_5">
<mask id="mask4_19_118" style="mask-type:alpha" maskUnits="userSpaceOnUse" x="86" y="229" width="321" height="72">
<g id="batter_6">
<path id="B_6" d="M115.04 262.623C119.784 263.021 124.19 265.209 127.346 268.733C130.501 272.258 132.163 276.848 131.987 281.551C131.987 294.004 123.559 301 109.2 301H86V229H106.177C119.391 229 126.995 235.792 126.995 246.275C126.995 256.759 120.239 261.287 115.04 262.328V262.623ZM106.91 261.196C116.07 261.196 123.147 256.464 123.147 246.592C123.147 237.74 116.597 232.6 105.673 232.6H89.9621V261.196H106.91ZM109.314 297.423C120.536 297.423 128.025 292.079 128.025 281.687C128.025 270.774 119.094 264.615 108.788 264.615H89.9621V297.4L109.314 297.423Z" fill="#94705A"/>
<path id="A_7" d="M150.681 278.766L142.129 301H138L165.947 229H170.166L198 301H193.849L185.297 278.766H150.681ZM175.497 253.362C172.82 246.57 168.193 233.415 168.079 233.302H167.875C167.875 233.415 163.043 246.366 160.457 253.272L152.019 275.166H183.777L175.497 253.362Z" fill="#94705A"/>
<path id="T_11" d="M231.932 232.691V301H228.046V232.691H205V229H255V232.691H231.932Z" fill="#94705A"/>
<path id="T_12" d="M288.493 232.691V301H284.53V232.691H261V229H312V232.691H288.493Z" fill="#94705A"/>
<path id="E_6" d="M318 229H359V232.691H321.762V261.083H351.476V264.796H321.762V297.287H358.91V301H318V229Z" fill="#94705A"/>
<path id="R_6" d="M386.131 270.026C384.61 270.14 380.74 270.14 379.421 270.14H369.87V301H366V229H382.821C397.874 229 406.597 236.902 406.597 250.079C406.597 262.011 399.887 267.876 390.247 269.415L407 301H402.526L386.131 270.026ZM383.581 266.63C394.765 266.63 402.705 262.623 402.705 250.079C402.705 238.26 394.966 232.691 382.575 232.691H369.87V266.653L383.581 266.63Z" fill="#94705A"/>
</g>
</mask>
<g mask="url(#mask4_19_118)">
<g id="batter_7">
<path id="B_7" d="M115.04 262.623C119.784 263.021 124.19 265.209 127.346 268.733C130.501 272.258 132.163 276.848 131.987 281.551C131.987 294.004 123.559 301 109.2 301H86V229H106.177C119.391 229 126.995 235.792 126.995 246.275C126.995 256.759 120.239 261.287 115.04 262.328V262.623ZM106.91 261.196C116.07 261.196 123.147 256.464 123.147 246.592C123.147 237.74 116.597 232.6 105.673 232.6H89.9621V261.196H106.91ZM109.314 297.423C120.536 297.423 128.025 292.079 128.025 281.687C128.025 270.774 119.094 264.615 108.788 264.615H89.9621V297.4L109.314 297.423Z" fill="#94705A"/>
<path id="A_8" d="M150.681 278.766L142.129 301H138L165.947 229H170.166L198 301H193.849L185.297 278.766H150.681ZM175.497 253.362C172.82 246.57 168.193 233.415 168.079 233.302H167.875C167.875 233.415 163.043 246.366 160.457 253.272L152.019 275.166H183.777L175.497 253.362Z" fill="#94705A"/>
<path id="T_13" d="M231.932 232.691V301H228.046V232.691H205V229H255V232.691H231.932Z" fill="#94705A"/>
<path id="T_14" d="M288.493 232.691V301H284.53V232.691H261V229H312V232.691H288.493Z" fill="#94705A"/>
<path id="E_7" d="M318 229H359V232.691H321.762V261.083H351.476V264.796H321.762V297.287H358.91V301H318V229Z" fill="#94705A"/>
<path id="R_7" d="M386.131 270.026C384.61 270.14 380.74 270.14 379.421 270.14H369.87V301H366V229H382.821C397.874 229 406.597 236.902 406.597 250.079C406.597 262.011 399.887 267.876 390.247 269.415L407 301H402.526L386.131 270.026ZM383.581 266.63C394.765 266.63 402.705 262.623 402.705 250.079C402.705 238.26 394.966 232.691 382.575 232.691H369.87V266.653L383.581 266.63Z" fill="#94705A"/>
</g>
<path id="liquid-blocker_4" d="M512.427 254.785C466.35 244.841 467.401 242.899 415.972 242.899C364.542 242.899 364.559 255.45 313.13 255.45C261.701 255.45 261.701 242.899 210.289 242.899C158.877 242.899 158.86 255.45 107.431 255.45C56.0015 255.45 44.5164 233.729 -1.72918 243.549C-24.3607 248.347 18.7002 260.212 18.4461 271.182C18.192 282.153 -10.5717 282.006 -10.8258 292.977C-11.0799 303.947 17.6838 304.051 17.4297 315.036C17.1756 326.022 -11.5881 325.882 -11.8422 336.853C-12.0963 347.824 -14.146 348.363 8.4855 353.235C54.2229 363.113 53.1557 365.122 104.212 365.122C155.269 365.122 155.269 352.571 206.325 352.571C257.381 352.571 257.398 365.122 308.455 365.122C359.511 365.122 359.511 352.571 410.585 352.571C461.658 352.571 473.092 374.225 518.999 364.479C541.631 359.68 498.942 347.72 499.552 336.757C500.162 325.793 528.943 326.096 529.57 315.125C530.196 304.154 501.348 303.859 501.958 292.91C502.568 281.961 525.673 283.276 531.568 272.615C536.752 263.379 535.058 259.687 512.427 254.785Z" fill="#E3CEC1"/>
</g>
</g>
</mask>
<g mask="url(#mask3_19_118)">
<path id="liquid-blocker_5" d="M514.427 291.795C468.35 287.615 469.401 286.798 417.972 286.798C366.542 286.798 366.559 292.074 315.13 292.074C263.701 292.074 263.701 286.798 212.289 286.798C160.877 286.798 160.86 292.074 109.431 292.074C58.0015 292.074 46.5164 282.944 0.270826 287.071C-22.3607 289.089 20.7002 294.076 20.4461 298.688C20.192 303.3 -8.57173 303.238 -8.82583 307.85C-9.07993 312.462 19.6838 312.505 19.4297 317.123C19.1756 321.742 -9.58812 321.683 -9.84221 326.294C-10.0963 330.906 -12.146 331.133 10.4855 333.181C56.2229 337.334 55.1557 338.178 106.212 338.178C157.269 338.178 152.444 326.254 203.5 326.254C254.556 326.254 310.175 373.808 315.13 347.375C338 311.223 470 393.617 412.585 332.902C463.658 332.902 475.092 342.005 520.999 337.908C543.631 335.891 500.942 330.863 501.552 326.254C502.162 321.645 530.943 321.773 531.57 317.161C532.196 312.549 503.348 312.425 503.958 307.822C504.568 303.219 527.673 303.772 533.568 299.29C538.752 295.408 537.058 293.856 514.427 291.795Z" fill="#EAE0D3"/>
</g>
</g>
</g>
</svg>
