<svg width="1559" height="1080" viewBox="0 0 1559 1080" fill="none" xmlns="http://www.w3.org/2000/svg">
<g id="cabin-scene">
<path id="Vector" d="M2.18323 -2.32086H1558.71V1081.02H1.81375V899.958" fill="#86B2BC"/>
<path id="Vector_2" opacity="0.38" d="M1.81375 1079.34H1558.71V-4H2.18323L1.81375 1079.34Z" fill="#D2DEE9"/>
<g id="Mountains">
<path id="Vector_3" d="M767.316 619.527C757.44 653.577 742.39 685.908 722.693 715.389C665.592 799.194 508.179 886.559 295.043 938.276L-0.0335999 929.175V315.42C20.741 334.495 36.091 348.785 44.5553 356.677C70.3346 380.738 80.2097 390.259 96.8696 393.147C104.931 394.574 115.444 396.388 127.301 392.375C136.471 389.268 138.755 385.289 145.573 385.809C153.131 386.397 158.505 391.888 167.658 401.425C172.634 406.61 177.242 412.136 181.446 417.965C183.226 420.567 185.124 423.136 187.072 425.672C201.666 444.495 220.543 461.538 237.455 476.818C246.134 484.45 253.869 493.092 260.497 502.559C263.369 506.74 265.535 510.283 266.727 512.432C274.811 506.287 282.693 500.309 290.374 494.499C378.158 427.872 439.306 381.242 447.216 374.492C451.652 370.391 456.638 366.927 462.029 364.199C467.604 361.445 469.25 361.714 472.995 359.044C479.108 354.662 479.545 350.481 483.962 345.494C485.641 343.563 493.417 335.335 502.872 335.201H503.292C508.482 335.201 513.05 338.743 522.035 345.762C528.886 351.144 535.294 357.068 541.197 363.477C549.393 372.292 550.148 374.543 556.732 380.1C567.245 388.933 571.847 388.832 573.392 388.681C579.824 388.11 581.117 384.701 586.827 384.399C595.224 383.946 599.792 392.425 608.828 399.948C620.433 409.603 626.327 406.765 644.264 415.06C653.803 419.426 663.141 426.814 681.413 441.355C683.781 443.236 711.004 469.094 724.037 477.221C725.465 478.164 727.071 478.804 728.756 479.102C735.188 480.16 740.26 475.273 746.625 471.16C751.966 467.701 762.328 462.126 766.006 462.764C773.11 464.107 778.081 493.156 767.316 619.527Z" fill="white"/>
<path id="Vector_4" d="M232.03 936.362L830.076 609.436H990.042L539.803 943.297L232.03 936.362Z" fill="#C2D5DA"/>
<path id="Vector_5" d="M724.037 477.154C712.717 486.742 696.914 493.324 683.025 492.887C652.963 491.93 615.075 457.542 596.887 425.89C592.907 418.955 581 396.741 568.169 397.815C561.07 398.617 553.933 399.043 546.79 399.091C541.751 399.091 541.365 397.194 541.365 397.194C528.534 376.529 515.72 355.865 502.923 335.201H503.343C508.532 335.201 513.1 338.744 522.085 345.762C528.937 351.144 535.345 357.068 541.247 363.477C549.443 372.293 550.199 374.543 556.782 380.1C567.295 388.933 571.897 388.832 573.442 388.681C579.874 388.11 581.167 384.701 586.878 384.399C595.275 383.946 599.843 392.425 608.878 399.948C620.483 409.603 626.378 406.765 644.314 415.06C653.853 419.426 663.191 426.814 681.463 441.355C692.715 450.238 707.293 462.294 724.037 477.154Z" fill="#C2D5DA"/>
<path id="Vector_6" d="M127.335 392.375C100.833 423.355 0.184723 365.811 0.184723 365.811V354.796C0.436638 342.119 0.906874 329.475 1.66262 316.898C21.6479 335.251 36.3429 348.969 44.5889 356.677C70.3682 380.738 80.2432 390.259 96.9032 393.147C104.964 394.524 115.478 396.388 127.335 392.375Z" fill="#C2D5DA"/>
<path id="Vector_7" d="M758.566 620.518C757.726 612.223 752.956 606.212 749.027 601.275C736.196 585.139 724.356 589.118 719.888 579.9C709.241 557.954 761.74 529.644 759.288 485.869C758.952 479.975 757.457 465.719 763.167 463.133C766.661 461.572 771.363 465.064 773.345 466.492C796.857 483.971 822.418 498.815 845.812 516.546C870.466 535.235 877.05 537.888 884.439 536.696C894.784 535.118 908.321 525.949 912.99 522.826C922.394 516.462 923.452 513.793 928.524 512.97C937.341 511.559 941.876 518.41 957.713 528.888C974.289 539.869 991.05 550.968 1007.66 548.232C1011.59 547.271 1015.66 546.998 1019.68 547.426C1028.08 548.5 1037.64 553.302 1038.93 557.836C1042.09 568.885 999.363 589.74 966.95 606.077C838.456 670.59 829.858 682.965 786.864 688.103C777.342 689.245 709.61 700.612 706.151 689.513C704.774 685.047 715.304 681.655 734.516 661.623C748.842 646.712 759.993 634.791 758.566 620.518Z" fill="#C2D5DA"/>
<path id="Vector_8" d="M585.937 717.185C583.821 721.232 573.526 719.67 532.044 712.92C494.895 706.875 484.012 704.995 483.257 707.295C482.417 709.915 492.74 716.161 514.225 726.034C452.086 716.648 415.525 729.863 393.222 744.807C376.428 756.023 367.359 768.483 332.511 790.781C299.14 812.106 281.943 817.043 273.731 819.008C245.08 825.909 209.106 824.901 206.553 815.129C204.202 806.38 231.174 796.759 263.301 773.805C309.62 740.693 347.088 711.98 373.59 691.108C383.901 690 389.897 684.19 389.427 680.077C388.956 675.963 381.449 673.36 380.895 673.175C346.92 699.336 329.521 709.293 319.831 713.256C313.615 715.76 307.553 718.631 301.676 721.853C298.586 723.532 295.127 725.614 283.539 733.305C264.359 746.083 265.585 745.965 260.648 748.568C251.915 753.135 249.631 752.632 235.843 758.106C235.843 758.106 225.884 762.068 211.021 769.557C179.246 785.576 133.767 835.413 133.767 835.413C85.8358 887.835 79.7058 904.609 49.7951 916.514C35.7383 922.123 12.2766 928.268 6.83527 920.326C1.39391 912.384 15.6187 894.283 25.9136 881.202C83.5685 807.992 111.464 770.296 144.263 742.842C177.852 714.683 193.756 699.588 225.38 669.364C265.166 631.399 239.437 652.405 268.34 622.617C275.646 614.768 282.045 606.122 287.418 596.842C290.777 591.217 298.402 578.086 295.059 574.896C293.128 573.066 288.191 575.215 284.58 576.793C278.448 579.482 272.924 583.383 268.34 588.262C264.376 592.728 252.973 600.469 230.149 615.934C211.071 628.863 201.23 630.509 182.454 639.794C165.945 647.938 142.819 661.858 117.543 686.541C117.543 686.541 88.8923 718.999 82.2754 714.65C75.6584 710.301 0.184723 768.617 0.184723 768.617V749.508C2.30081 746.973 5.74364 742.792 9.84146 737.486C20.6492 723.481 30.5985 708.835 39.6346 693.627C52.1631 672.957 56.6472 672.588 117.342 597.715C126.497 586.553 134.763 574.69 142.063 562.235C147.759 552.599 152.754 542.566 157.01 532.213C163.865 515.841 168.742 498.711 171.537 481.184C173.888 466.072 173.099 460.547 177.449 447.853C180.17 440.274 183.396 432.887 187.106 425.739C201.7 444.562 220.577 461.605 237.489 476.885C246.167 484.517 253.903 493.159 260.53 502.626C263.402 506.807 265.569 510.35 266.761 512.5C274.845 506.354 282.727 500.376 290.407 494.567C314.625 525.446 333.636 550.935 347.055 546.619C351.824 545.058 357.266 539.248 363.715 541.397C369.425 543.295 371.893 550.095 372.548 551.825C381.097 573.368 437.039 618.536 469.368 640.819C498.978 661.087 530.978 677.623 564.642 690.051C585.047 707.396 587.617 714.18 585.937 717.185Z" fill="#C2D5DA"/>
</g>
<g id="middleground-trees">
<path id="Vector_9" d="M820.655 613.969C819.613 609.117 843.092 605.238 848.08 588.245C849.524 583.292 848.348 580.823 851.12 568.717C854.243 555.082 856.578 554.562 857.233 554.528C858.912 554.528 860.188 557.08 860.793 558.273C874.598 585.558 881.517 599.21 885.464 603.508C889.832 608.478 893.438 614.069 896.162 620.098C897.287 622.617 898.177 625.136 897.421 625.723C895.742 627.234 887.698 618.553 886.488 619.561C884.91 620.904 895.944 638.199 908.103 656.233C906.786 657.044 905.318 657.58 903.789 657.811C902.26 658.042 900.699 657.962 899.202 657.576C895.625 656.384 893.979 653.059 893.609 653.294C893.24 653.53 895.289 658.735 907.851 682.73C899.554 679.254 896.985 679.657 896.212 680.765C894.247 683.586 903.753 691.679 909.648 706.439C912.383 713.253 914.032 720.455 914.535 727.781H808.512C807.283 721.602 807.421 715.229 808.915 709.109C810.595 702.392 813.802 697.355 818.303 690.37C824.181 681.168 828.699 676.483 827.792 675.392C826.533 673.847 816.59 682.108 815.146 680.429C813.047 678.045 831.47 657.862 829.388 655.477C827.91 653.798 817.984 663.017 815.667 661.018C813.349 659.02 817.917 648.223 837.281 617.21C824.551 617.311 821.058 615.716 820.655 613.969Z" fill="#6B94C6"/>
<path id="Vector_10" d="M740.714 670.757C739.672 666.14 763.134 662.446 768.122 646.309C769.583 641.608 768.407 639.257 771.178 627.738C774.302 614.792 776.62 614.305 777.292 614.305C778.971 614.305 780.247 616.723 780.852 617.865C794.657 643.791 801.559 656.753 805.523 660.851C809.866 665.532 813.468 670.849 816.204 676.618C817.346 679.002 818.236 681.319 817.48 681.957C815.801 683.384 807.74 675.14 806.547 676.114C804.969 677.373 816.003 693.812 828.162 710.956C825.468 712.506 822.282 712.963 819.261 712.232C815.683 711.09 814.038 707.933 813.668 708.152C813.299 708.37 815.348 713.323 827.91 736.126C819.613 732.768 817.027 733.204 816.271 734.262C814.306 736.949 823.812 744.622 829.791 758.66C832.52 765.102 834.171 771.949 834.678 778.927H728.571C727.342 773.069 727.48 767.007 728.974 761.212C730.654 754.815 733.861 750.096 738.362 743.396C744.24 734.648 748.741 730.199 747.851 729.157C746.592 727.697 736.649 735.471 735.205 733.909C733.106 731.643 751.529 712.45 749.43 710.183C747.969 708.504 738.043 717.353 735.726 715.456C733.408 713.558 737.976 703.282 757.34 673.813C744.61 673.931 741.083 672.42 740.714 670.757Z" fill="#72A7D5"/>
<path id="Vector_11" d="M687.257 715.237C686.216 710.637 709.678 706.943 714.666 690.806C716.127 686.088 714.951 683.754 717.722 672.235C720.846 659.289 723.163 658.802 723.835 658.802C725.515 658.802 726.791 661.22 727.396 662.362C741.201 688.304 748.103 701.267 752.067 705.347C756.402 710.04 760.003 715.362 762.748 721.131C763.89 723.516 764.78 725.816 764.024 726.471C762.345 727.898 754.283 719.637 753.091 720.611C751.512 721.887 762.546 738.325 774.705 755.469C772.012 757.022 768.823 757.473 765.804 756.729C762.227 755.604 760.581 752.447 760.212 752.665C759.842 752.884 761.891 757.837 774.453 780.64C766.157 777.281 763.571 777.718 762.815 778.759C760.85 781.445 770.339 789.136 776.334 803.173C779.064 809.615 780.715 816.463 781.222 823.44H675.115C673.886 817.577 674.024 811.51 675.518 805.709C677.197 799.328 680.405 794.593 684.906 787.893C690.784 779.145 695.285 774.712 694.395 773.671C693.135 772.193 683.193 779.968 681.749 778.406C679.649 776.139 698.073 756.964 695.973 754.697C694.496 753.018 684.587 761.85 682.269 759.969C679.952 758.089 684.52 747.796 703.884 718.327C691.154 718.361 687.627 716.917 687.257 715.237Z" fill="#81BBE4"/>
</g>
<g id="little-trees">
<path id="Vector_12" d="M445.839 615.581C445.637 614.658 450.256 613.902 451.23 610.762C451.532 609.839 451.23 609.369 451.834 607.102C452.456 604.549 452.909 604.449 453.044 604.449C453.178 604.449 453.631 604.919 453.749 605.137C455.138 608.089 456.761 610.924 458.602 613.617C459.461 614.539 460.175 615.586 460.719 616.723C460.937 617.193 461.105 617.647 460.97 617.781C460.836 617.915 459.039 616.438 458.804 616.622C458.569 616.807 460.668 620.115 463.07 623.49C462.558 623.773 461.962 623.862 461.39 623.742C460.685 623.507 460.366 622.885 460.299 622.936C460.232 622.986 460.618 623.96 463.103 628.443C461.424 627.789 460.954 627.872 460.803 628.074C460.416 628.611 462.297 630.123 463.473 632.893C464.016 634.161 464.34 635.513 464.43 636.889H443.437C443.202 635.734 443.231 634.54 443.521 633.397C443.935 632.126 444.559 630.934 445.369 629.871C446.527 628.192 447.417 627.285 447.25 627.083C447.082 626.882 445.033 628.309 444.747 628.007C444.462 627.705 447.972 623.792 447.552 623.339C447.132 622.885 445.301 624.749 444.848 624.38C444.394 624.011 445.301 621.979 449.114 616.169C446.544 616.169 445.906 615.9 445.839 615.581Z" fill="#6B94C6"/>
<path id="Vector_13" d="M412.956 595.281C412.754 594.374 417.373 593.602 418.363 590.462C418.649 589.538 418.363 589.085 418.968 586.801C419.573 584.249 420.043 584.165 420.16 584.148C420.278 584.131 420.748 584.635 420.866 584.853C422.256 587.781 423.884 590.589 425.736 593.249C426.581 594.179 427.288 595.225 427.835 596.355C428.054 596.842 428.238 597.296 428.087 597.413C427.936 597.531 426.173 596.07 425.938 596.271C425.702 596.473 427.802 599.747 430.187 603.122C429.679 603.417 429.079 603.507 428.507 603.374C427.802 603.156 427.483 602.534 427.399 602.585C427.315 602.635 427.718 603.592 430.203 608.092C428.524 607.438 428.07 607.521 427.919 607.723C427.533 608.244 429.397 609.771 430.573 612.525C431.111 613.796 431.44 615.146 431.547 616.522H410.638C410.395 615.367 410.423 614.171 410.722 613.029C411.129 611.761 411.754 610.573 412.569 609.52C413.728 607.841 414.618 606.917 414.434 606.715C414.249 606.514 412.233 607.958 411.948 607.656C411.662 607.354 415.156 603.424 414.753 602.971C414.35 602.518 412.502 604.382 412.049 604.012C411.595 603.643 412.485 601.611 416.298 595.818C413.795 595.902 413.107 595.616 412.956 595.281Z" fill="#6B94C6"/>
<path id="Vector_14" d="M462.868 629.938C462.667 629.031 467.285 628.259 468.259 625.119C468.562 624.195 468.259 623.725 468.864 621.458C469.485 618.906 469.939 618.805 470.073 618.805C470.207 618.805 470.661 619.292 470.778 619.51C472.173 622.432 473.796 625.239 475.632 627.906C476.491 628.828 477.205 629.876 477.748 631.012C477.966 631.483 478.134 631.936 478 632.07C477.866 632.205 476.069 630.727 475.834 630.912C475.598 631.096 477.698 634.404 480.099 637.779C479.567 638.091 478.934 638.182 478.336 638.031C477.631 637.813 477.311 637.192 477.244 637.225C477.177 637.259 477.563 638.249 480.049 642.75C478.37 642.095 477.899 642.162 477.748 642.38C477.362 642.901 479.243 644.412 480.418 647.182C480.96 648.451 481.284 649.802 481.376 651.179H460.467C460.205 650.029 460.205 648.836 460.467 647.686C460.881 646.421 461.505 645.234 462.314 644.177C463.473 642.498 464.363 641.574 464.195 641.373C464.027 641.171 461.978 642.615 461.693 642.313C461.407 642.011 464.917 638.082 464.497 637.628C464.077 637.175 462.247 639.039 461.793 638.669C461.34 638.3 462.247 636.268 466.059 630.475C463.641 630.559 462.935 630.274 462.868 629.938Z" fill="#6B94C6"/>
<path id="Vector_15" d="M506.718 662.631C506.517 661.724 511.135 660.951 512.126 657.811C512.412 656.888 512.126 656.418 512.731 654.151C513.335 651.599 513.806 651.498 513.923 651.498C514.041 651.498 514.511 651.968 514.628 652.203C516.018 655.131 517.647 657.939 519.499 660.599C520.343 661.529 521.05 662.575 521.598 663.705C521.816 664.175 522.001 664.629 521.85 664.763C521.699 664.897 519.935 663.42 519.684 663.604C519.432 663.789 521.565 667.097 523.949 670.472C523.439 670.759 522.842 670.849 522.27 670.724C521.565 670.506 521.229 669.884 521.161 669.918C521.094 669.951 521.481 670.942 523.966 675.425C522.287 674.787 521.833 674.855 521.682 675.056C521.296 675.593 523.16 677.105 524.336 679.875C524.879 681.143 525.203 682.495 525.293 683.871H504.333C504.064 682.723 504.064 681.527 504.333 680.379C504.751 679.112 505.382 677.925 506.198 676.869C507.356 675.19 508.23 674.267 508.062 674.065C507.894 673.864 505.845 675.308 505.576 674.989C505.308 674.67 508.784 670.774 508.381 670.321C507.978 669.868 506.13 671.731 505.677 671.362C505.224 670.993 506.114 668.961 509.926 663.151C507.491 663.185 506.802 662.95 506.718 662.631Z" fill="#6B94C6"/>
<path id="Vector_16" d="M523.798 676.987C523.597 676.08 528.215 675.308 529.206 672.168C529.491 671.244 529.206 670.774 529.81 668.507C530.415 665.955 530.885 665.854 531.003 665.854C531.12 665.854 531.591 666.341 531.708 666.56C533.098 669.487 534.727 672.295 536.578 674.955C537.423 675.885 538.13 676.931 538.678 678.062C538.896 678.549 539.081 679.002 538.93 679.119C538.779 679.237 537.015 677.776 536.763 677.961C536.511 678.146 538.644 681.453 541.029 684.828C540.522 685.123 539.921 685.214 539.35 685.08C538.644 684.862 538.308 684.241 538.241 684.291C538.174 684.342 538.56 685.299 541.046 689.799C539.366 689.144 538.913 689.228 538.762 689.429C538.375 689.95 540.24 691.478 541.415 694.232C541.953 695.503 542.282 696.852 542.389 698.228H521.363C521.111 697.074 521.14 695.876 521.447 694.735C521.854 693.467 522.479 692.28 523.294 691.226C524.453 689.547 525.326 688.623 525.158 688.422C524.99 688.22 522.942 689.664 522.673 689.362C522.404 689.06 525.881 685.131 525.478 684.677C525.074 684.224 523.227 686.088 522.774 685.718C522.32 685.349 523.21 683.317 527.023 677.524C524.52 677.608 523.798 677.323 523.798 676.987Z" fill="#6B94C6"/>
<path id="Vector_17" d="M477.143 653.597C476.942 652.69 481.56 651.918 482.551 648.778C482.837 647.854 482.551 647.401 483.156 645.117C483.76 642.565 484.231 642.481 484.348 642.464C484.466 642.447 484.936 642.951 485.054 643.169C486.443 646.097 488.072 648.905 489.924 651.565C490.771 652.499 491.478 653.551 492.023 654.688C492.242 655.158 492.426 655.612 492.275 655.729C492.124 655.847 490.361 654.386 490.109 654.587C489.857 654.789 491.99 658.063 494.374 661.438C493.867 661.733 493.266 661.823 492.695 661.69C491.99 661.472 491.654 660.851 491.587 660.901C491.519 660.951 491.906 661.908 494.391 666.408C492.712 665.754 492.258 665.838 492.107 666.039C491.721 666.56 493.585 668.088 494.761 670.841C495.299 672.112 495.628 673.462 495.735 674.838H474.759C474.49 673.689 474.49 672.494 474.759 671.345C475.179 670.079 475.809 668.893 476.623 667.836C477.782 666.157 478.655 665.233 478.487 665.032C478.319 664.83 476.27 666.274 476.001 665.972C475.733 665.67 479.209 661.74 478.806 661.287C478.403 660.834 476.556 662.698 476.102 662.328C475.649 661.959 476.539 659.927 480.351 654.134C477.916 654.218 477.227 653.933 477.143 653.597Z" fill="#72A7D5"/>
<path id="Vector_18" d="M434.788 617.848C434.57 616.941 439.205 616.169 440.179 613.029C440.465 612.105 440.179 611.635 440.784 609.369C441.405 606.816 441.859 606.715 441.993 606.715C442.127 606.715 442.581 607.186 442.698 607.421C444.093 610.342 445.716 613.15 447.552 615.816C448.411 616.738 449.124 617.786 449.668 618.923C449.886 619.393 450.054 619.846 449.903 619.981C449.752 620.115 447.988 618.637 447.753 618.822C447.518 619.007 449.618 622.315 452.019 625.69C451.484 625.993 450.854 626.083 450.256 625.941C449.55 625.723 449.231 625.102 449.164 625.135C449.097 625.169 449.483 626.16 451.969 630.643C450.289 630.005 449.819 630.072 449.668 630.274C449.282 630.811 451.163 632.322 452.338 635.093C452.882 636.361 453.205 637.712 453.295 639.089H432.387C432.152 637.933 432.18 636.74 432.471 635.596C432.874 634.327 433.5 633.139 434.318 632.087C435.477 630.408 436.367 629.484 436.199 629.283C436.031 629.081 433.982 630.525 433.697 630.206C433.411 629.887 436.921 625.992 436.501 625.538C436.081 625.085 434.251 626.949 433.797 626.58C433.344 626.21 434.251 624.178 438.063 618.369C435.544 618.52 434.788 618.217 434.788 617.848Z" fill="#81BBE4"/>
<path id="Vector_19" d="M424.124 602.048C423.922 601.141 428.541 600.368 429.532 597.228C429.817 596.305 429.532 595.835 430.136 593.568C430.741 591.016 431.194 590.915 431.329 590.915C431.463 590.915 431.916 591.402 432.034 591.62C433.429 594.542 435.051 597.349 436.887 600.016C437.746 600.938 438.46 601.985 439.004 603.122C439.222 603.609 439.407 604.062 439.255 604.18C439.104 604.298 437.341 602.837 437.089 603.021C436.837 603.206 438.953 606.514 441.355 609.889C440.847 610.182 440.247 610.272 439.675 610.141C438.97 609.923 438.634 609.301 438.567 609.352C438.5 609.402 438.886 610.359 441.372 614.859C439.692 614.204 439.239 614.288 439.088 614.49C438.701 615.01 440.565 616.538 441.741 619.292C442.283 620.561 442.606 621.912 442.698 623.289H421.739C421.471 622.14 421.471 620.945 421.739 619.796C422.153 618.527 422.783 617.34 423.603 616.287C424.762 614.607 425.635 613.684 425.467 613.482C425.299 613.281 423.25 614.725 422.965 614.423C422.679 614.12 426.19 610.191 425.77 609.738C425.35 609.285 423.536 611.148 423.083 610.779C422.629 610.41 423.519 608.378 427.332 602.585C424.896 602.736 424.208 602.383 424.124 602.048Z" fill="#72A7D5"/>
<path id="Vector_20" d="M384.136 568.532C383.918 567.609 388.553 566.853 389.527 563.713C389.813 562.773 389.527 562.319 390.132 560.053C390.753 557.5 391.207 557.4 391.341 557.4C391.476 557.4 391.912 557.87 392.03 558.088C393.426 561.013 395.054 563.82 396.9 566.484C397.751 567.409 398.458 568.456 398.999 569.59C399.235 570.06 399.403 570.514 399.251 570.648C399.1 570.782 397.337 569.305 397.102 569.489C396.867 569.674 398.966 572.982 401.367 576.357C400.833 576.66 400.203 576.75 399.604 576.609C398.899 576.374 398.58 575.752 398.496 575.803C398.412 575.853 398.815 576.827 401.317 581.31C399.638 580.655 399.167 580.739 399.016 580.941C398.63 581.478 400.494 582.989 401.687 585.76C402.214 587.033 402.537 588.382 402.644 589.756H381.735C381.464 588.602 381.464 587.401 381.735 586.247C382.146 584.98 382.77 583.793 383.582 582.738C384.741 581.058 385.631 580.152 385.446 579.933C385.262 579.715 383.246 581.176 382.961 580.874C382.675 580.572 386.169 576.642 385.766 576.206C385.362 575.769 383.515 577.616 383.062 577.247C382.608 576.877 383.498 574.846 387.327 569.036C384.892 569.153 384.204 568.851 384.136 568.532Z" fill="#81BBE4"/>
<path id="Vector_21" d="M373.472 552.681C373.271 551.774 377.889 551.002 378.88 547.862C379.165 546.939 378.88 546.468 379.468 544.202C380.089 541.649 380.543 541.549 380.677 541.549C380.811 541.549 381.265 542.019 381.382 542.254C382.777 545.176 384.4 547.983 386.236 550.649C387.095 551.571 387.808 552.619 388.352 553.756C388.57 554.226 388.738 554.679 388.604 554.814C388.469 554.948 386.672 553.47 386.437 553.655C386.202 553.84 388.301 557.148 390.703 560.523C390.171 560.835 389.538 560.925 388.94 560.775C388.251 560.556 387.915 559.935 387.848 559.969C387.781 560.002 388.167 560.993 390.653 565.493C388.973 564.838 388.503 564.905 388.352 565.123C387.966 565.644 389.847 567.155 391.022 569.926C391.565 571.194 391.889 572.545 391.979 573.922H371.087C370.819 572.773 370.819 571.578 371.087 570.43C371.498 569.163 372.123 567.976 372.935 566.92C374.094 565.241 374.984 564.317 374.816 564.116C374.648 563.914 372.599 565.359 372.313 565.039C372.028 564.72 375.538 560.825 375.118 560.372C374.698 559.918 372.884 561.782 372.414 561.413C371.944 561.043 372.868 559.011 376.68 553.202C374.329 553.302 373.539 553 373.472 552.681Z" fill="#72A7D5"/>
<path id="Vector_22" d="M398.261 577.264C398.059 576.357 402.677 575.584 403.668 572.445C403.954 571.521 403.668 571.051 404.256 568.784C404.878 566.232 405.331 566.131 405.465 566.131C405.6 566.131 406.053 566.601 406.171 566.836C407.565 569.758 409.188 572.565 411.024 575.232C411.883 576.154 412.597 577.201 413.14 578.338C413.359 578.808 413.527 579.262 413.392 579.396C413.258 579.53 411.461 578.053 411.226 578.237C410.991 578.422 413.09 581.73 415.492 585.105C414.984 585.398 414.384 585.488 413.812 585.357C413.107 585.139 412.771 584.517 412.704 584.551C412.637 584.585 413.023 585.575 415.508 590.075C413.829 589.42 413.359 589.488 413.207 589.706C412.821 590.226 414.702 591.738 415.878 594.508C416.421 595.776 416.745 597.128 416.835 598.505H395.876C395.607 597.356 395.607 596.161 395.876 595.012C396.287 593.745 396.911 592.558 397.723 591.503C398.882 589.823 399.772 588.9 399.604 588.698C399.436 588.497 397.387 589.941 397.102 589.639C396.816 589.337 400.326 585.407 399.906 584.954C399.487 584.501 397.673 586.364 397.203 585.995C396.732 585.626 397.656 583.594 401.468 577.784C399.033 577.885 398.328 577.549 398.261 577.264Z" fill="#6B94C6"/>
<path id="Vector_23" d="M425.266 620.887C425.047 619.981 429.683 619.208 430.657 616.068C430.942 615.145 430.657 614.675 431.261 612.408C431.883 609.855 432.336 609.755 432.471 609.755C432.605 609.755 433.042 610.225 433.159 610.46C434.549 613.388 436.178 616.196 438.029 618.856C438.874 619.785 439.581 620.832 440.129 621.962C440.364 622.432 440.532 622.885 440.381 623.02C440.23 623.154 438.466 621.677 438.231 621.861C437.996 622.046 440.095 625.354 442.497 628.729C441.987 629.018 441.389 629.107 440.817 628.981C440.112 628.762 439.793 628.141 439.709 628.175C439.625 628.208 440.028 629.199 442.53 633.699C440.851 633.044 440.381 633.111 440.23 633.33C439.843 633.85 441.707 635.361 442.9 638.132C443.427 639.405 443.75 640.754 443.857 642.128H422.864C422.621 640.973 422.65 639.778 422.948 638.636C423.352 637.366 423.977 636.178 424.796 635.126C425.954 633.447 426.844 632.524 426.66 632.322C426.475 632.121 424.46 633.565 424.174 633.246C423.889 632.927 427.382 629.031 426.979 628.578C426.576 628.124 424.728 629.988 424.275 629.619C423.821 629.249 424.712 627.218 428.541 621.408C426.022 621.509 425.333 621.206 425.266 620.887Z" fill="#6B94C6"/>
<path id="Vector_24" d="M489.319 653.597C489.118 652.69 493.736 651.918 494.727 648.778C495.013 647.854 494.727 647.401 495.332 645.117C495.936 642.565 496.407 642.481 496.524 642.464C496.642 642.447 497.112 642.951 497.229 643.169C498.619 646.097 500.248 648.905 502.1 651.565C502.947 652.499 503.654 653.551 504.199 654.688C504.417 655.158 504.602 655.612 504.451 655.729C504.3 655.847 502.536 654.386 502.301 654.587C502.066 654.789 504.166 658.063 506.55 661.438C506.043 661.733 505.442 661.823 504.871 661.69C504.166 661.472 503.846 660.851 503.762 660.901C503.678 660.951 504.082 661.908 506.567 666.408C504.888 665.754 504.434 665.838 504.283 666.039C503.897 666.56 505.761 668.088 506.937 670.841C507.474 672.112 507.803 673.462 507.911 674.838H486.935C486.691 673.683 486.72 672.487 487.019 671.345C487.426 670.077 488.051 668.889 488.866 667.836C490.025 666.157 490.915 665.233 490.73 665.032C490.545 664.83 488.53 666.274 488.245 665.972C487.959 665.67 491.452 661.74 491.049 661.287C490.646 660.834 488.799 662.698 488.345 662.328C487.892 661.959 488.782 659.927 492.594 654.134C490.092 654.218 489.403 653.933 489.319 653.597Z" fill="#6B94C6"/>
<path id="Vector_25" d="M477.143 648.072C476.942 647.166 481.56 646.393 482.551 643.27C482.837 642.33 482.551 641.876 483.156 639.61C483.76 637.057 484.231 636.957 484.348 636.957C484.466 636.957 484.936 637.427 485.054 637.645C486.438 640.602 488.067 643.439 489.924 646.125C490.773 647.051 491.481 648.098 492.023 649.231C492.242 649.701 492.426 650.154 492.275 650.289C492.124 650.423 490.361 648.929 490.109 649.13C489.857 649.332 491.99 652.623 494.374 655.998C493.865 656.285 493.267 656.375 492.695 656.25C491.99 656.015 491.654 655.393 491.587 655.444C491.519 655.494 491.906 656.468 494.391 660.951C492.712 660.296 492.258 660.38 492.107 660.582C491.721 661.119 493.585 662.63 494.761 665.401C495.298 666.666 495.627 668.01 495.735 669.38H474.759C474.49 668.232 474.49 667.037 474.759 665.888C475.179 664.622 475.809 663.436 476.623 662.379C477.782 660.699 478.655 659.793 478.487 659.574C478.319 659.356 476.27 660.817 476.001 660.515C475.733 660.212 479.209 656.283 478.806 655.847C478.403 655.41 476.556 657.257 476.102 656.888C475.649 656.518 476.539 654.487 480.351 648.677C477.916 648.643 477.227 648.341 477.143 648.072Z" fill="#81BBE4"/>
<path id="Vector_26" d="M516.291 670.371C516.09 669.464 520.708 668.692 521.699 665.552C521.984 664.629 521.699 664.175 522.303 661.908C522.908 659.356 523.378 659.255 523.496 659.239C523.613 659.222 524.084 659.726 524.201 659.944C525.59 662.899 527.219 665.735 529.072 668.423C529.925 669.346 530.633 670.393 531.171 671.53C531.389 672 531.574 672.453 531.423 672.571C531.272 672.688 529.508 671.228 529.256 671.429C529.004 671.631 531.12 674.905 533.522 678.297C533.009 678.577 532.412 678.66 531.843 678.532C531.137 678.313 530.801 677.692 530.734 677.743C530.667 677.793 531.053 678.75 533.539 683.25C531.859 682.595 531.406 682.679 531.255 682.881C530.869 683.401 532.733 684.929 533.908 687.683C534.448 688.952 534.772 690.303 534.866 691.679H513.906C513.638 690.531 513.638 689.335 513.906 688.187C514.327 686.921 514.957 685.735 515.77 684.677C516.929 682.998 517.803 682.075 517.635 681.873C517.467 681.672 515.418 683.116 515.149 682.814C514.88 682.511 518.357 678.582 517.937 678.146C517.517 677.709 515.703 679.556 515.25 679.17C514.796 678.784 515.687 676.785 519.499 670.976C517.08 671.009 516.375 670.707 516.291 670.371Z" fill="#72A7D5"/>
<path id="Vector_27" d="M530.062 683.922C529.861 683.015 534.479 682.243 535.47 679.103C535.756 678.179 535.47 677.709 536.075 675.442C536.679 672.89 537.15 672.789 537.267 672.789C537.385 672.789 537.855 673.259 537.973 673.495C539.362 676.422 540.991 679.23 542.843 681.89C543.687 682.82 544.394 683.866 544.942 684.996C545.16 685.467 545.345 685.92 545.194 686.054C545.043 686.189 543.28 684.711 543.044 684.896C542.809 685.08 544.909 688.388 547.293 691.763C546.783 692.05 546.186 692.14 545.614 692.015C544.909 691.797 544.573 691.176 544.505 691.209C544.438 691.243 544.825 692.234 547.31 696.734C545.631 696.079 545.177 696.146 545.026 696.347C544.64 696.885 546.504 698.396 547.68 701.166C548.219 702.437 548.548 703.787 548.654 705.163H527.678C527.425 704.009 527.454 702.811 527.762 701.67C528.165 700.401 528.791 699.212 529.609 698.161C530.768 696.482 531.641 695.558 531.473 695.357C531.305 695.155 529.273 696.599 528.988 696.28C528.702 695.961 532.195 692.066 531.792 691.612C531.389 691.159 529.542 693.023 529.088 692.653C528.635 692.284 529.525 690.252 533.337 684.442C530.835 684.543 530.146 684.241 530.062 683.922Z" fill="#81BBE4"/>
<path id="Vector_28" d="M520.54 686.911C520.338 686.004 524.957 685.231 525.948 682.092C526.233 681.168 525.948 680.698 526.536 678.431C527.157 675.879 527.61 675.778 527.745 675.778C527.879 675.778 528.333 676.248 528.45 676.483C529.845 679.405 531.468 682.212 533.304 684.879C534.163 685.801 534.876 686.848 535.42 687.985C535.638 688.455 535.806 688.909 535.672 689.043C535.537 689.177 533.74 687.7 533.505 687.884C533.27 688.069 535.369 691.377 537.771 694.752C537.263 695.046 536.663 695.136 536.092 695.004C535.386 694.786 535.05 694.164 534.983 694.198C534.916 694.232 535.302 695.222 537.788 699.722C536.108 699.068 535.638 699.135 535.487 699.353C535.101 699.874 536.982 701.385 538.157 704.155C538.701 705.424 539.024 706.775 539.115 708.152H518.155C517.887 707.003 517.887 705.808 518.155 704.659C518.566 703.392 519.191 702.205 520.003 701.15C521.161 699.47 522.051 698.547 521.884 698.345C521.716 698.144 519.667 699.588 519.381 699.286C519.096 698.984 522.606 695.054 522.186 694.601C521.766 694.148 519.952 696.011 519.499 695.642C519.045 695.273 519.935 693.241 523.748 687.431C521.313 687.532 520.607 687.23 520.54 686.911Z" fill="#6B94C6"/>
</g>
<g id="snowflakes">
<path id="Vector_29" d="M122.884 521.768C127.318 521.768 130.912 518.175 130.912 513.742C130.912 509.309 127.318 505.716 122.884 505.716C118.45 505.716 114.856 509.309 114.856 513.742C114.856 518.175 118.45 521.768 122.884 521.768Z" fill="#C2D5DA"/>
<path id="Vector_30" d="M641.593 676.92C646.63 676.92 650.713 672.838 650.713 667.802C650.713 662.767 646.63 658.684 641.593 658.684C636.557 658.684 632.474 662.767 632.474 667.802C632.474 672.838 636.557 676.92 641.593 676.92Z" fill="#C2D5DA"/>
<path id="Vector_31" d="M514.108 396.052C519.144 396.052 523.227 391.97 523.227 386.935C523.227 381.899 519.144 377.817 514.108 377.817C509.071 377.817 504.988 381.899 504.988 386.935C504.988 391.97 509.071 396.052 514.108 396.052Z" fill="#C2D5DA"/>
<path id="Vector_32" d="M487.187 368.481C489.7 368.481 491.738 366.444 491.738 363.93C491.738 361.417 489.7 359.38 487.187 359.38C484.673 359.38 482.635 361.417 482.635 363.93C482.635 366.444 484.673 368.481 487.187 368.481Z" fill="#C2D5DA"/>
<path id="Vector_33" d="M418.195 559.431C424.41 559.431 429.448 554.394 429.448 548.181C429.448 541.968 424.41 536.931 418.195 536.931C411.981 536.931 406.943 541.968 406.943 548.181C406.943 554.394 411.981 559.431 418.195 559.431Z" fill="#C2D5DA"/>
<path id="Vector_34" d="M110.859 543.933C113.076 543.933 114.873 542.136 114.873 539.92C114.873 537.703 113.076 535.907 110.859 535.907C108.643 535.907 106.845 537.703 106.845 539.92C106.845 542.136 108.643 543.933 110.859 543.933Z" fill="#C2D5DA"/>
<path id="Vector_35" opacity="0.48" d="M260.9 282.023C268.607 282.023 274.856 275.775 274.856 268.069C274.856 260.363 268.607 254.116 260.9 254.116C253.192 254.116 246.944 260.363 246.944 268.069C246.944 275.775 253.192 282.023 260.9 282.023Z" fill="white"/>
<path id="Vector_36" opacity="0.48" d="M430.455 151.873C438.163 151.873 444.411 145.626 444.411 137.92C444.411 130.213 438.163 123.966 430.455 123.966C422.748 123.966 416.499 130.213 416.499 137.92C416.499 145.626 422.748 151.873 430.455 151.873Z" fill="white"/>
<path id="Vector_37" opacity="0.48" d="M303.927 299.872C307.776 299.872 310.897 296.752 310.897 292.903C310.897 289.055 307.776 285.935 303.927 285.935C300.078 285.935 296.957 289.055 296.957 292.903C296.957 296.752 300.078 299.872 303.927 299.872Z" fill="white"/>
<path id="Vector_38" opacity="0.48" d="M774.168 398.89C781.876 398.89 788.124 392.643 788.124 384.936C788.124 377.23 781.876 370.983 774.168 370.983C766.46 370.983 760.212 377.23 760.212 384.936C760.212 392.643 766.46 398.89 774.168 398.89Z" fill="white"/>
<path id="Vector_39" opacity="0.48" d="M604.612 268.741C612.32 268.741 618.568 262.494 618.568 254.787C618.568 247.081 612.32 240.834 604.612 240.834C596.905 240.834 590.656 247.081 590.656 254.787C590.656 262.494 596.905 268.741 604.612 268.741Z" fill="white"/>
<path id="Vector_40" opacity="0.48" d="M731.141 416.739C734.99 416.739 738.11 413.619 738.11 409.771C738.11 405.922 734.99 402.802 731.141 402.802C727.292 402.802 724.171 405.922 724.171 409.771C724.171 413.619 727.292 416.739 731.141 416.739Z" fill="white"/>
<path id="Vector_41" opacity="0.48" d="M1512.58 398.89C1520.29 398.89 1526.54 392.643 1526.54 384.936C1526.54 377.23 1520.29 370.983 1512.58 370.983C1504.87 370.983 1498.62 377.23 1498.62 384.936C1498.62 392.643 1504.87 398.89 1512.58 398.89Z" fill="white"/>
<path id="Vector_42" opacity="0.48" d="M876.932 15.5282C880.781 15.5282 883.902 12.4084 883.902 8.55984C883.902 4.71131 880.781 1.59146 876.932 1.59146C873.083 1.59146 869.963 4.71131 869.963 8.55984C869.963 12.4084 873.083 15.5282 876.932 15.5282Z" fill="white"/>
<path id="Vector_43" opacity="0.48" d="M1028.43 201.072C1036.14 201.072 1042.39 194.825 1042.39 187.118C1042.39 179.412 1036.14 173.165 1028.43 173.165C1020.73 173.165 1014.48 179.412 1014.48 187.118C1014.48 194.825 1020.73 201.072 1028.43 201.072Z" fill="white"/>
<path id="Vector_44" opacity="0.48" d="M1071.46 218.904C1075.31 218.904 1078.43 215.784 1078.43 211.936C1078.43 208.087 1075.31 204.967 1071.46 204.967C1067.61 204.967 1064.49 208.087 1064.49 211.936C1064.49 215.784 1067.61 218.904 1071.46 218.904Z" fill="white"/>
<path id="Vector_45" opacity="0.48" d="M1484.42 352.563C1488.27 352.563 1491.39 349.443 1491.39 345.594C1491.39 341.746 1488.27 338.626 1484.42 338.626C1480.57 338.626 1477.45 341.746 1477.45 345.594C1477.45 349.443 1480.57 352.563 1484.42 352.563Z" fill="white"/>
</g>
<path id="blue-path" d="M458.989 799.194C483.542 754.042 511.051 736.008 532.128 727.982C569.915 713.558 587.281 730.803 705.748 739.921C716.076 740.71 752.621 743.363 800.468 742.305C842.454 741.365 863.581 740.895 881.635 735.135C920.749 722.676 933.009 701.032 980.856 663.52C1010.54 640.31 1042.36 619.958 1075.88 602.736C1075.88 602.736 1167.32 570.514 1242.66 608.882L975.717 810.007C903.316 804.584 827.843 800.571 749.497 798.421C648.076 795.617 551.005 796.171 458.989 799.194Z" fill="#B7D5EA"/>
<path id="Vector_46" d="M961.962 438.45L1076.87 322.842L1193.94 438.45H1428.11V463.167H1195.03V626.748V642.028L961.962 634.74V438.45Z" fill="#D3836F"/>
<path id="Vector_47" d="M1428.11 463.167H1195.03V642.028L1428.11 636.537V463.167Z" fill="#EC9177"/>
<path id="small-snow-pile" d="M1077.22 275.105C1082.22 270.538 1088.18 267.163 1094.67 265.231C1109.79 261.05 1116.27 270.168 1134.98 270.101C1149.74 270.101 1147.47 264.408 1161.48 265.063C1178.83 265.853 1197.08 275.138 1197.08 275.138H1077.17L1077.22 275.105Z" fill="white"/>
<g id="rectangle-window">
<path id="Vector_48" d="M1337.99 504.759H1292.94V590.193H1337.99V504.759Z" fill="white"/>
<path id="Vector_49" d="M1292.94 504.759L1337.97 590.193V504.759H1292.94Z" fill="#E5EAEF"/>
<path id="Vector_50" d="M1319.11 504.759H1315.47V590.193H1319.11V504.759Z" fill="#37445E"/>
<path id="Vector_51" d="M1337.99 552.496V548.383H1292.94V552.496H1337.99Z" fill="#37445E"/>
<path id="Vector_52" d="M1338.99 504.171H1293.95V589.605H1338.99V504.171Z" stroke="#37445E" stroke-width="1.5" stroke-miterlimit="10"/>
</g>
<g id="door">
<path id="Vector_53" d="M1099.78 639.123L1040.98 636.302L1040.84 503.852H1099.78V639.123Z" fill="#A3665A"/>
<path id="Vector_54" d="M1093.14 516.681H1046.47V544.571H1093.14V516.681Z" fill="white"/>
<path id="Vector_55" d="M1098.11 637.259L1042.88 635.462L1042.73 506.69H1097.84L1098.11 637.259Z" stroke="#37445E" stroke-width="1.5" stroke-miterlimit="10"/>
<path id="Vector_56" d="M1046.47 516.697L1093.13 544.588V516.697H1046.47Z" fill="#E5EAEF"/>
<path id="Vector_57" d="M1068.24 544.588H1072.35V516.697H1068.24V544.588Z" fill="#37445E"/>
</g>
<g id="circle-window">
<path id="Vector_58" d="M1070.42 471.26C1085.71 471.26 1098.11 458.864 1098.11 443.571C1098.11 428.279 1085.71 415.883 1070.42 415.883C1055.12 415.883 1042.73 428.279 1042.73 443.571C1042.73 458.864 1055.12 471.26 1070.42 471.26Z" fill="white"/>
<path id="Vector_59" d="M1098.16 443.571C1098.17 449.244 1096.4 454.777 1093.13 459.406C1092.58 453.771 1090.32 448.439 1086.65 444.13C1082.98 439.82 1078.08 436.741 1072.6 435.307C1067.12 433.874 1061.34 434.155 1056.02 436.114C1050.71 438.072 1046.13 441.613 1042.89 446.258C1042.79 445.366 1042.74 444.469 1042.74 443.571C1042.74 436.223 1045.66 429.176 1050.86 423.981C1056.06 418.785 1063.1 415.866 1070.45 415.866C1077.8 415.866 1084.85 418.785 1090.05 423.981C1095.24 429.176 1098.16 436.223 1098.16 443.571V443.571Z" fill="#E5EAEF"/>
<path id="Vector_60" d="M1068.37 471.176H1072.49V416.084H1068.37V471.176Z" fill="#37445E"/>
<path id="Vector_61" d="M1098.11 447.081V442.967H1042.74V447.081H1098.11Z" fill="#37445E"/>
</g>
<path id="tree-next-to-house" d="M1530.27 568.851C1528.42 571.353 1534.13 577.129 1540.43 586.851H1423.3C1424.49 584.971 1425.8 583.023 1427.22 580.907C1435.01 569.338 1440.95 563.478 1439.78 562.084C1438.1 560.153 1424.96 570.48 1422.98 568.364C1420.2 565.375 1444.55 540.004 1441.79 536.998C1439.86 534.882 1426.68 546.468 1423.67 543.967C1420.9 541.7 1426.63 527.88 1452.22 488.925C1435.43 489.109 1430.73 487.111 1430.24 484.895C1428.84 478.8 1459.9 473.93 1466.48 452.588C1468.43 446.342 1466.87 443.252 1470.54 428.023C1474.64 410.879 1477.73 410.241 1478.59 410.19C1480.77 410.106 1482.52 413.414 1483.33 414.909C1501.58 449.197 1510.7 466.357 1515.96 471.747C1521.68 477.958 1526.44 484.994 1530.08 492.619C1531.58 495.776 1532.75 498.815 1531.76 499.671C1529.53 501.569 1518.86 490.671 1517.27 491.947C1515.18 493.626 1529.78 515.354 1545.82 538.022C1542.93 539.466 1538.49 541.112 1534.06 539.702C1529.32 538.207 1527.14 534.043 1526.65 534.345C1526.17 534.647 1528.8 541.179 1545.51 571.286C1534.68 566.92 1531.26 567.474 1530.27 568.851Z" fill="#6B94C6"/>
<g id="snow-hill">
<path id="big-white" d="M1558.78 1082.97H1.94818V811.905C141.845 830.846 251.042 823.105 326.414 811.905C420.043 798.002 461.81 778.709 554.297 783.88C595.695 786.214 640.939 793.082 725.212 793.216C770.171 793.317 785.084 791.084 820.151 790.11C924.779 787.171 932.169 802.821 972.475 787.205C1010.82 772.361 1038.48 744.857 1046.37 736.932C1079.1 703.769 1086.41 676.349 1123.93 653.11C1139.63 643.404 1152.06 639.677 1170.33 634.253C1200.83 625.186 1263.4 629.434 1310.7 622.012C1311.91 621.811 1345.46 610.913 1412.6 589.152C1453.77 575.719 1474.74 568.868 1497.43 556.627C1519.56 544.626 1540.16 529.996 1558.78 513.054C1558.41 562.487 1558.61 682.948 1558.78 802.502C1558.97 919.067 1559.15 1034.78 1558.78 1082.97Z" fill="white"/>
<path id="small-white" d="M836.173 741.331C903.165 669.448 958.889 622.684 980.285 619.141C986.499 618.1 999.682 616.924 1008.65 623.406C1013.15 626.662 1016.53 631.24 1018.31 636.503C1011.79 641.205 1003.07 647.569 992.897 655.293C978.32 666.358 965.606 676.013 950.34 689.127C931.195 705.549 930.187 708.42 918.011 716.631C908.824 723.115 898.916 728.513 888.487 732.717C871.823 739.14 854.017 742.072 836.173 741.331V741.331Z" fill="white"/>
</g>
<g id="foreground-snow-hills">
<path id="dark-blue" d="M703.329 1082.97L703.581 1069.53C701.65 1053.3 701.751 1026.78 722.055 1004.45C769.65 952.162 877.302 978.777 1025.36 942.323C1086.78 927.211 1127.97 906.725 1210.3 865.922C1302.74 820.334 1389.65 764.3 1469.32 698.916C1469.32 698.916 1544.72 658.416 1558.33 676.063L1558.73 1082.97H703.329Z" fill="#BAD5E7"/>
<path id="purple" d="M1554.6 826.95V1082.97H584.829C618.619 1029.62 656.204 1007.98 685.007 998.238C737.993 980.321 762.261 1001.75 928.424 1013.06C942.884 1014.12 994.039 1017.48 1061.22 1016.07C1120.2 1014.89 1149.69 1014.39 1175 1007.17C1229.85 991.672 1247.03 964.789 1314.09 918.177C1356.16 889.076 1400.75 863.789 1447.32 842.616C1482.26 832.813 1518.32 827.548 1554.6 826.95V826.95Z" fill="#D0E0EF"/>
<path id="light-blue" d="M575.944 1003.83C664.266 1003.29 734.164 1032.21 760.313 1043.31C786.354 1054.36 811.397 1067.63 835.165 1082.97H333.468C370.533 1057.34 458.048 1004.53 575.944 1003.83Z" fill="#E5F2FC"/>
</g>
<g id="foreground-trees-small">
<path id="tree-back" d="M1190.72 923.886C1189.79 919.873 1210.22 916.666 1214.57 902.628C1215.82 898.531 1214.8 896.483 1217.22 886.475C1219.94 875.191 1221.95 874.721 1222.53 874.721C1223.95 874.721 1225.1 876.837 1225.63 877.828C1237.64 900.378 1243.65 911.662 1247.1 915.222C1250.87 919.301 1254 923.926 1256.38 928.94C1257.37 931.022 1258.06 933.02 1257.49 933.591C1256.03 934.834 1249.09 927.647 1247.99 928.554C1246.61 929.645 1256.22 943.952 1266.8 958.862C1264.45 960.213 1261.68 960.61 1259.05 959.97C1255.93 958.98 1254.5 956.243 1254.18 956.428C1253.86 956.612 1255.58 960.928 1266.58 980.775C1259.34 977.887 1257.11 978.223 1256.5 979.096C1254.82 981.43 1263.05 988.129 1268.26 1000.34C1270.63 1005.94 1272.06 1011.9 1272.51 1017.97H1180.14C1179.06 1012.87 1179.18 1007.58 1180.49 1002.54C1181.97 996.995 1184.74 992.881 1188.65 987.055C1193.69 979.432 1197.69 975.57 1196.91 974.663C1195.81 973.387 1187.16 980.154 1185.9 978.793C1184.07 976.812 1200.11 960.138 1198.27 958.157C1197 956.763 1188.37 964.387 1186.35 962.741C1184.34 961.095 1188.3 952.163 1205.16 926.522C1194.09 926.657 1191.04 925.33 1190.72 923.886Z" fill="#81BBE4"/>
<path id="tree-front" d="M1123.64 981.346C1122.73 977.333 1143.16 974.125 1147.51 960.088C1148.77 955.991 1147.74 953.942 1150.16 943.935C1152.86 932.668 1154.89 932.181 1155.47 932.181C1156.89 932.181 1158.04 934.28 1158.56 935.27C1170.58 957.821 1176.59 969.105 1180.04 972.665C1183.81 976.743 1186.94 981.369 1189.32 986.383C1190.31 988.465 1191.09 990.48 1190.43 991.034C1188.97 992.277 1182.03 985.107 1180.91 985.997C1179.55 987.105 1189.16 1001.39 1199.74 1016.22C1197.39 1017.57 1194.61 1017.97 1191.98 1017.33C1188.87 1016.34 1187.43 1013.6 1187.11 1013.79C1186.79 1013.97 1188.52 1018.29 1199.5 1038.13C1192.28 1035.25 1190.05 1035.58 1189.42 1036.45C1187.74 1038.79 1195.99 1045.47 1201.18 1057.68C1203.55 1063.29 1204.98 1069.24 1205.43 1075.31H1113.06C1111.99 1070.21 1112.11 1064.94 1113.41 1059.9C1114.89 1054.34 1117.66 1050.22 1121.58 1044.4C1126.61 1036.79 1130.61 1032.91 1129.82 1032.01C1128.73 1030.75 1120.08 1037.5 1118.82 1036.14C1116.99 1034.17 1133.03 1017.48 1131.2 1015.5C1129.92 1014.11 1121.29 1021.75 1119.27 1020.08C1117.26 1018.42 1121.22 1009.5 1138.08 983.864C1127.03 984.116 1123.98 982.79 1123.64 981.346Z" fill="#72A7D5"/>
</g>
<g id="foreground-trees-big">
<path id="tree-right" d="M1558.78 1082.97H1369.8C1366.79 1069.12 1367.13 1054.76 1370.79 1041.07C1372.92 1033.58 1376.03 1026.41 1380.06 1019.75C1380.27 1019.36 1380.49 1018.94 1380.76 1018.56C1383.62 1013.75 1386.96 1008.83 1390.69 1003.44C1391.75 1001.97 1392.79 1000.42 1393.91 998.842C1408.37 978.071 1419.44 967.526 1417.27 965.075C1414.17 961.566 1389.66 980.019 1386.14 976.325C1385.96 976.119 1385.83 975.873 1385.76 975.608C1385.69 975.343 1385.68 975.066 1385.73 974.797C1385.84 973.926 1386.09 973.079 1386.49 972.295C1392.06 959.651 1425.65 924.726 1421.17 920.091C1417.51 916.279 1393.07 937.101 1387.4 932.584C1382.26 928.504 1392.9 903.703 1440.63 833.784C1409.28 834.153 1400.61 830.56 1399.69 826.614C1397.1 815.666 1454.89 806.901 1467.17 768.617C1470.75 757.434 1467.87 751.826 1474.68 724.557C1482.35 693.812 1488.11 692.653 1489.79 692.552C1493.8 692.418 1497.05 698.312 1498.54 701.032C1532.05 761.615 1549.02 792.377 1558.85 802.569C1558.97 919.067 1559.15 1034.78 1558.78 1082.97Z" fill="#6B94C6"/>
<path id="tree-left" d="M1392.06 1057.59C1389.48 1061.12 1397.52 1069.35 1406.44 1083H1241.23C1242.91 1080.33 1244.76 1077.58 1246.78 1074.6C1257.73 1058.32 1266.12 1050.04 1264.48 1048.07C1262.13 1045.32 1243.59 1059.83 1240.97 1056.94C1237.04 1052.71 1271.38 1016.89 1267.5 1012.64C1264.78 1009.67 1246.26 1026.08 1241.96 1022.5C1238.03 1019.28 1246.1 999.799 1282.26 944.825C1258.5 945.11 1251.95 942.272 1251.23 939.132C1249.28 930.552 1293.08 923.684 1302.38 893.578C1305.1 884.745 1302.94 880.396 1308.11 858.92C1313.92 834.724 1318.19 833.733 1319.48 833.733C1322.54 833.633 1325.02 838.284 1326.2 840.45C1351.96 888.842 1364.82 913.039 1372.23 920.628C1380.26 929.392 1386.95 939.301 1392.06 950.03C1393.27 952.375 1394.2 954.848 1394.85 957.401C1395.07 958.627 1394.99 959.534 1394.47 960.004C1394.34 960.108 1394.19 960.188 1394.03 960.239C1390.15 961.448 1376.19 947.394 1374.04 949.09C1371.89 950.786 1383.52 969.609 1399.45 992.747C1404.16 999.581 1409.23 1006.82 1414.4 1014.11C1410.32 1016.15 1404.04 1018.45 1397.77 1016.47C1394.17 1015.16 1390.99 1012.9 1388.57 1009.92C1387.95 1009.22 1387.53 1008.77 1387.33 1008.9C1387.13 1009.03 1387.23 1009.67 1387.8 1011.27C1389.63 1016 1396.2 1029.12 1413.93 1061.09C1398.38 1054.91 1393.56 1055.65 1392.06 1057.59Z" fill="#72A7D5"/>
</g>
<g id="smoke">
<path id="Vector_62" d="M1290.07 64.2062C1289.51 76.5533 1287.72 88.8145 1284.75 100.811C1283.83 104.438 1282.77 108.199 1281.39 112.061C1280.65 114.345 1279.81 116.679 1278.9 119.046C1272.44 136.073 1267.75 139.918 1259.31 158.036C1254.3 168.77 1250.13 179.874 1246.83 191.249C1244.43 199.504 1242.45 207.877 1240.92 216.335C1235.24 195.766 1236.65 180.267 1239.03 169.823C1241.08 160.857 1243.3 158.187 1247.94 143.478C1250.72 134.713 1255.8 118.61 1257.53 102.876C1260.97 71.4432 1250.49 46.122 1246.58 36.9707C1240.4 22.6282 1231.97 9.36406 1221.6 -2.32086H1283.1C1289.01 19.3313 1291.37 41.7995 1290.07 64.2062V64.2062Z" fill="#E5EAEF"/>
<path id="Vector_63" d="M1330.61 72.6018C1323.9 98.8802 1307.76 118.106 1301.43 125.645C1287.42 142.302 1279.39 144.737 1265.8 161.428C1254.84 174.922 1246.32 190.224 1240.61 206.647C1237.37 179.697 1243.62 162.284 1251.14 150.799C1260.09 137.114 1268.71 135.2 1277.06 121.145C1278.79 118.245 1280.29 115.207 1281.52 112.061C1282.97 108.417 1284.1 104.652 1284.88 100.811C1287.82 86.4378 1285.84 73.3574 1284.8 66.4226C1279.96 34.5192 1259.14 11.4312 1242.48 -2.32086H1322.79C1329.34 12.6234 1338.73 40.7488 1330.61 72.6018Z" fill="#CFD5DD"/>
</g>
<g id="roof">
<path id="Vector_64" d="M931.262 421.659L961.962 438.45L1076.87 322.842L1193.94 438.45L1216.83 416.084L1077.22 275.105L931.262 421.659Z" fill="#37445E"/>
<path id="Vector_65" d="M1077.22 275.105H1312.74L1452.49 415.883L1216.83 416.084L1077.22 275.105Z" fill="#43566F"/>
<path id="Vector_66" d="M1193.94 438.45L1216.83 416.084L1452.49 415.883L1428.1 438.45H1193.94Z" fill="#536A81"/>
<path id="Vector_67" d="M1312.74 211.919H1242.66V295.909H1312.74V211.919Z" fill="#536A81"/>
<path id="Vector_68" opacity="0.55" d="M1242.23 295.926L1361.92 416.101H1428.11L1312.74 295.926H1242.23Z" fill="#536A81"/>
<path id="Vector_69" d="M1242.66 211.919H1197.13V295.909H1242.66V211.919Z" fill="#43566F"/>
</g>
<g id="gutters">
<path id="Vector_70" d="M1123.15 321.045L1127.89 324.639H1361.92L1358.68 321.364L1123.15 321.045Z" fill="#F3E1C9"/>
<path id="Vector_71" d="M1152.14 350.766L1155.89 354.527L1391.29 354.359L1388.05 351.085L1152.14 350.766Z" fill="#F3E1C9"/>
<path id="Vector_72" d="M1181.55 380.47L1185.29 384.248L1420.7 384.063L1417.46 380.789L1181.55 380.47Z" fill="#F3E1C9"/>
<path id="Vector_73" d="M1213.07 412.306L1216.82 416.084L1452.22 415.899L1448.96 412.625L1213.07 412.306Z" fill="#F3E1C9"/>
<path id="Vector_74" d="M1094.28 292.332L1097.22 295.926H1242.23L1234.47 292.651L1094.28 292.332Z" fill="#F3E1C9"/>
</g>
<g id="snow-pile-big">
<path id="Vector_75" d="M1141.83 340.288C1153.05 339.51 1164.32 340.017 1175.42 341.8C1184.12 343.057 1192.65 345.31 1200.84 348.516C1211.24 352.619 1220.83 358.532 1229.16 365.979C1242.07 377.733 1239.24 382.619 1249.31 386.851C1258.05 390.545 1262.35 387.707 1275.11 392.593C1283.51 395.834 1282.53 397.412 1291.05 400.754C1301.69 404.952 1306.88 403.894 1318.88 406.849C1327.18 408.904 1335.19 412.007 1342.71 416.084H1235.88L1141.83 340.288Z" fill="white"/>
<path id="Vector_76" d="M1160.69 346.098C1157.23 344.419 1153.82 343.26 1153.82 343.26C1151.96 342.589 1150.7 342.219 1150.7 342.219C1147.79 341.36 1144.83 340.715 1141.83 340.288L1216.9 416.084H1327.52C1315.03 411.987 1302.03 409.615 1288.9 409.032C1282.18 408.763 1278.82 409.116 1270.42 409.317C1264.21 409.485 1260.87 409.452 1256.85 409.452C1247.95 409.452 1243.42 409.452 1242.02 409.267C1234.28 408.276 1229.39 404.784 1219.87 397.966C1213.19 393.236 1207.11 387.704 1201.77 381.494C1193.89 372.292 1196.9 372.309 1190.63 365.677C1190.62 365.694 1181.38 355.904 1160.69 346.098Z" fill="#D7CFC8"/>
</g>
</g>
</svg>
