<svg width="768" height="768" viewBox="0 0 768 768" fill="none" xmlns="http://www.w3.org/2000/svg">
<g id="shark-tank-camp-icon">
<rect width="768" height="768" fill="white"/>
<g id="shark-icon">
<mask id="mask0_2:2" style="mask-type:alpha" maskUnits="userSpaceOnUse" x="148" y="147" width="426" height="426">
<g id="circle-mask" clip-path="url(#clip0_2:2)">
<path id="Vector" d="M361.009 573.018C478.651 573.018 574.018 477.651 574.018 360.009C574.018 242.367 478.651 147 361.009 147C243.367 147 148 242.367 148 360.009C148 477.651 243.367 573.018 361.009 573.018Z" fill="white"/>
</g>
</mask>
<g mask="url(#mask0_2:2)">
<path id="fourth-wave" opacity="0.8" d="M-43.5164 354.79C16.4773 329.17 28.3981 387.331 93.641 387.331C158.884 387.331 158.884 353.487 224.127 353.487C289.37 353.487 289.387 387.331 354.629 387.331C419.872 387.331 419.889 353.487 485.149 353.487C550.409 353.487 548.919 360.797 609.082 386.062C634.481 396.723 632.923 397.772 633.245 425.304C633.567 452.836 599.735 453.106 600.006 480.638C600.277 508.17 634.244 507.714 634.566 535.313C634.888 562.913 600.971 563.251 601.293 590.783C601.614 618.315 650.906 650.433 625.558 661.246C565.987 686.629 554.1 628.722 489.315 628.722C424.529 628.722 424.529 662.566 359.743 662.566C294.958 662.566 294.958 628.722 230.172 628.722C165.386 628.722 165.369 662.566 100.584 662.566C35.7978 662.566 37.3049 655.07 -22.4348 629.992C-47.8343 619.331 -46.7336 618.569 -47.5295 591.071C-48.3253 563.573 -14.4085 562.558 -15.1874 535.026C-15.9664 507.494 -49.8832 508.458 -50.6621 480.875C-51.441 453.293 -11.005 446.693 -19.0651 420.346C-30.4272 383.27 -68.8651 365.535 -43.5164 354.79Z" fill="#EBFAFF"/>
<path id="third-wave" opacity="0.87" d="M69.9179 353.792C129.912 328.155 141.832 386.316 207.075 386.316C272.318 386.316 272.318 352.472 337.561 352.472C402.804 352.472 402.821 386.316 468.064 386.316C533.307 386.316 533.324 352.472 598.583 352.472C663.843 352.472 662.353 359.782 722.516 385.046C747.916 395.707 746.358 396.756 746.679 424.288C747.001 451.82 713.186 452.176 713.44 479.708C713.694 507.24 747.678 506.783 748 534.383C748.322 561.982 714.405 562.321 714.727 589.87C715.049 617.419 764.341 649.503 738.992 660.333C679.422 685.716 667.535 627.809 602.749 627.809C537.963 627.809 537.963 661.653 473.178 661.653C408.392 661.653 408.392 627.809 343.606 627.809C278.82 627.809 278.803 661.653 214.018 661.653C149.232 661.653 150.739 654.173 90.9995 629.095C65.6 618.417 66.7006 617.656 65.9048 590.174C65.1089 562.693 99.0257 561.661 98.2468 534.163C97.4679 506.664 63.5511 507.578 62.6875 480.012C61.8239 452.447 102.345 445.847 94.2845 419.499C83.0071 382.339 44.5692 364.622 69.9179 353.792Z" fill="#AAEDFF"/>
<path id="shark-fin" d="M291.08 321.724C293.697 332.913 294.43 344.46 293.247 355.89C290.69 380.173 280.852 387.415 283.934 396.79C291.808 420.786 374.526 428.705 386.379 403.559C394.524 386.265 368.362 355.196 346.01 339.932C329.69 328.999 310.703 322.705 291.08 321.724Z" fill="#6D6D6D" stroke="#3F3F3F" stroke-width="3" stroke-miterlimit="10"/>
<path id="second-wave" opacity="0.51" d="M646.03 396.012C593.758 370.138 594.943 365.078 536.592 365.078C478.241 365.078 478.241 397.704 419.889 397.704C361.538 397.704 361.538 365.078 303.187 365.078C244.836 365.078 244.836 397.704 186.569 397.704C128.303 397.704 115.095 341.252 62.6368 366.737C36.9663 379.225 85.8181 410.091 85.5302 438.638C85.2423 467.185 52.5955 466.83 52.3076 495.377C52.0198 523.925 84.6666 524.229 84.3788 552.777C84.0909 581.324 51.4441 580.986 51.1054 609.516C50.7667 638.046 48.4977 639.468 74.1004 652.142C126.051 677.847 124.832 683.076 182.76 683.076C240.687 683.076 240.704 650.45 298.632 650.45C356.56 650.45 356.577 683.076 414.505 683.076C472.432 683.076 472.449 650.45 530.377 650.45C588.305 650.45 601.327 706.766 653.413 681.384C679.083 668.878 630.655 637.776 631.4 609.245C632.145 580.715 664.741 581.51 665.435 552.98C666.129 524.449 633.499 523.637 634.21 495.107C634.922 466.576 661.032 470.028 667.789 442.276C673.563 418.4 671.632 408.686 646.03 396.012Z" fill="#029DC4"/>
<path id="first-wave" d="M600.818 394.32C554.761 371.526 555.81 367.075 504.402 367.075C452.993 367.075 453.01 395.843 401.602 395.843C350.193 395.843 350.193 367.075 298.801 367.075C247.41 367.075 247.393 395.843 195.984 395.843C144.575 395.843 133.095 346.058 86.8678 368.564C64.2453 379.564 107.289 406.757 107.035 431.903C106.781 457.049 78.0288 456.711 77.7748 481.857C77.5208 507.003 106.273 507.24 106.019 532.42C105.765 557.6 77.0128 557.278 76.7588 582.424C76.5048 607.57 74.4559 608.805 97.0784 619.974C142.798 642.615 141.731 647.218 192.767 647.218C243.803 647.218 243.803 618.451 294.839 618.451C345.875 618.451 345.892 647.218 396.928 647.218C447.964 647.218 447.964 618.451 499.017 618.451C550.07 618.451 561.5 668.083 607.388 645.746C630.011 634.747 587.34 607.333 587.949 582.204C588.559 557.075 617.328 557.769 617.955 532.623C618.581 507.477 589.744 506.8 590.354 481.705C590.963 456.609 614.06 459.621 619.953 435.186C625.134 414.017 623.441 405.556 600.818 394.32Z" fill="#029DC4"/>
</g>
</g>
</g>
<defs>
<clipPath id="clip0_2:2">
<rect width="426" height="426" fill="white" transform="translate(148 147)"/>
</clipPath>
</defs>
</svg>
