<svg width="768" height="768" viewBox="0 0 768 768" fill="none" xmlns="http://www.w3.org/2000/svg">
<g id="starwarscampicon">
<rect width="768" height="768" fill="white"/>
<path id="saber-glow" d="M371.383 122.324C371.331 121.07 371.533 119.818 371.977 118.644C372.421 117.47 373.098 116.397 373.966 115.492C374.835 114.586 375.878 113.865 377.032 113.373C378.187 112.88 379.429 112.627 380.683 112.627C381.938 112.627 383.18 112.88 384.335 113.373C385.489 113.865 386.532 114.586 387.401 115.492C388.269 116.397 388.946 117.47 389.39 118.644C389.834 119.818 390.036 121.07 389.984 122.324V490.773L395.061 493.75V118.296C395.052 115.833 394.07 113.474 392.329 111.732C390.588 109.991 388.23 109.008 385.768 109H375.934C373.471 109.008 371.113 109.991 369.372 111.732C367.631 113.474 366.649 115.833 366.641 118.296V477.067L371.414 479.869L371.383 122.324Z" fill="#E07D93"/>
<path id="saber-main-light" d="M371.383 479.869V122.324C371.331 121.07 371.533 119.818 371.977 118.644C372.421 117.47 373.098 116.397 373.966 115.492C374.835 114.586 375.878 113.865 377.032 113.373C378.187 112.88 379.429 112.627 380.683 112.627C381.938 112.627 383.18 112.88 384.335 113.373C385.489 113.865 386.532 114.586 387.401 115.492C388.269 116.397 388.946 117.47 389.39 118.644C389.834 119.818 390.036 121.07 389.984 122.324V490.773L371.383 479.869Z" fill="#E83A39" stroke="#870A0A" stroke-miterlimit="10"/>
<g id="light-saber-bottom">
<path id="handle-rectangle-1" d="M369.218 609.414H364.652V649.433H369.218V609.414Z" fill="#2C2A36"/>
<path id="handle-rectangle-4" d="M401.776 609.414H397.209V649.433H401.776V609.414Z" fill="#2C2A36"/>
<path id="charger" d="M403.876 563.489H400.519C398.031 563.489 396.015 565.506 396.015 567.994V586.921C396.015 589.409 398.031 591.426 400.519 591.426H403.876C406.363 591.426 408.379 589.409 408.379 586.921V567.994C408.379 565.506 406.363 563.489 403.876 563.489Z" fill="#96ACBE" stroke="#231F20" stroke-width="0.78" stroke-miterlimit="10"/>
<path id="handle" d="M397.209 658.395H369.266C369.075 588.768 368.985 553.954 368.996 553.954H373.769C373.769 553.954 373.849 543.686 373.992 524.6L377.032 520.207L379.896 516.052H397.272L397.209 658.395Z" fill="#B3BFC9" stroke="#231F20" stroke-width="0.75" stroke-miterlimit="10"/>
<path id="top-of-saber" d="M395.029 493.75L366.577 477.068L365.081 476.192V553.954H373.674C373.759 544.169 373.833 534.385 373.897 524.6L379.8 516.052H397.177V495.024L395.029 493.75Z" fill="#454557" stroke="#231F20" stroke-width="0.75" stroke-miterlimit="10"/>
<path id="handle-rectangle-3" d="M391.289 609.414H386.722V649.433H391.289V609.414Z" fill="#2C2A36"/>
<path id="on-switch" d="M365.129 490.773H358.605V499.242H365.129V490.773Z" fill="#767782" stroke="#231F20" stroke-width="0.75" stroke-miterlimit="10"/>
<path id="off-switch" d="M365.129 517.978H358.605V526.447H365.129V517.978Z" fill="#767782" stroke="#231F20" stroke-width="0.75" stroke-miterlimit="10"/>
<path id="light-shadow" d="M382.76 657.727H377.175V521.003L380.182 516.641H382.712C382.723 563.643 382.739 610.671 382.76 657.727Z" fill="#96ACBE"/>
<path id="shadow-next-to-charger" d="M397.209 564.556H369.027V590.344H397.209V564.556Z" fill="#5C5A71" stroke="#231F20" stroke-width="0.76" stroke-miterlimit="10"/>
<path id="dark-shadow-2" d="M382.76 565.16H377.159V589.723H382.76V565.16Z" fill="#2C2C37"/>
<path id="dark-shadow-1" d="M378.368 517.103L373.34 524.361C373.181 510.035 373.027 495.708 372.878 481.381L378.368 484.565V517.103Z" fill="#2C2C37"/>
<path id="handle-rectangle-2" d="M380.134 609.414H375.568V649.433H380.134V609.414Z" fill="#2C2A36"/>
<path id="charger-shadow" opacity="0.72" d="M403.319 590.805H400.582C400.143 590.826 399.704 590.756 399.293 590.598C398.77 590.379 398.282 590.084 397.845 589.723C397.845 589.723 397.845 571.671 397.845 565.208C398.148 564.925 398.491 564.689 398.864 564.508C399.107 564.381 399.363 564.279 399.627 564.205C399.881 564.134 400.144 564.097 400.407 564.094C401.728 564.094 403.59 564.094 403.59 564.094C403.59 564.094 403.383 578.293 403.319 590.805Z" fill="#5F727E"/>
</g>
</g>
</svg>
