<svg width="768" height="768" viewBox="0 0 768 768" fill="none" xmlns="http://www.w3.org/2000/svg">
<g id="summertime-fun-camp-icon">
<rect width="768" height="768" fill="white"/>
<g id="orange-ray-9">
<path id="outside" d="M196.713 480.771C222.315 476.503 244.916 472.005 267.747 469.511C272.525 468.991 278.114 475.86 283.32 479.318C282.968 480.175 282.601 481.016 282.233 481.873L176.577 486.922L245.483 422.175C251.608 429.427 250.077 435.072 242.099 441.345C229.573 451.198 217.175 461.209 204.905 471.378C202.087 473.673 200.112 476.87 196.713 480.771Z" fill="#F2C105"/>
<path id="inside" d="M251.531 439.937L268.161 464.677L214.398 473.03L213.082 470.506L251.531 439.937Z" fill="#F2C105"/>
</g>
<g id="orange-ray-8">
<path id="outside_2" d="M279.737 591.937C276.675 572.583 289.399 497.937 296.259 491.665C306.626 496.254 307.392 498.733 304.972 511.554C302.446 524.88 300.547 538.328 298.526 551.73C298.325 555.103 298.325 558.485 298.526 561.858C305.493 553.979 310.668 547.966 316.013 542.137C322.888 534.625 330.268 527.542 336.73 519.708C341.508 513.925 346.377 513.267 352.747 516.205C356.407 517.918 360.403 518.944 365.503 520.703C339.931 548.211 309.949 569.585 279.737 591.937Z" fill="#F2C105"/>
<path id="inside_2" d="M305.477 543.499C307.284 530.418 309.076 517.337 311.051 503.032L336.546 513.619L308.218 544.662L305.477 543.499Z" fill="#F2C105"/>
</g>
<g id="orange-ray-7">
<path id="outside_3" d="M444.393 575.628C445.112 567.137 445.924 561.262 446.092 555.356C446.644 541.036 447.394 526.716 447.195 512.395C447.088 504.394 451.789 502.129 459.445 499.452C456.045 534.641 452.753 568.575 449.461 602.539L445.878 603.733L381.06 521.208C389.88 517.72 395.102 517.765 399.604 523.656C409.832 537.073 420.138 550.43 430.795 563.526C433.995 567.489 438.375 570.395 444.393 575.628Z" fill="#F2C105"/>
<path id="inside_3" d="M401.15 519.831C415.207 516.021 426.079 513.16 436.905 510.085C440.411 509.091 443.367 508.341 443.213 513.543C442.754 528.914 442.244 544.284 441.682 559.655C441.296 562.078 440.738 564.471 440.013 566.815L401.15 519.831Z" fill="#F2C105"/>
</g>
<g id="orange-ray-6">
<path id="outside_4" d="M605.174 474.973C566.678 479.089 529.04 477.666 490.636 473.596C493.025 467.599 495.72 464.126 502.764 463.407C526.414 460.794 550.325 461.826 573.661 466.467C576.05 466.971 578.745 466.038 581.317 465.763L582.435 462.81C564.841 448.704 547.354 434.46 529.576 420.584C524.202 416.392 522.502 412.031 525.472 404.841C557.001 423.338 578.561 451.703 605.174 474.973Z" fill="#F2C105"/>
<path id="inside_4" d="M522.211 420.767C538.121 433.359 553.357 445.445 569.68 458.45H502.611L522.211 420.767Z" fill="#F2C105"/>
</g>
<g id="orange-ray-5">
<path id="outside_5" d="M583.645 329.307C577.734 328.114 571.823 325.942 565.913 325.942C552.04 325.942 538.151 326.905 524.278 327.624C512.396 328.252 512.396 328.344 508.46 314.62L609.783 321L528.014 394.881C523.957 380.469 526.805 374.104 541.107 363.502C550.815 356.296 560.171 348.6 569.863 341.379C574.319 338.059 579.219 335.259 583.905 332.337C583.828 331.296 583.737 330.287 583.645 329.307Z" fill="#F2C105"/>
<path id="inside_5" d="M527.968 370.203C523.972 356.097 520.725 344.668 517.02 331.602H576.555L527.968 370.203Z" fill="#F2C105"/>
</g>
<g id="orange-ray-4">
<path id="outside_6" d="M446.996 239.561C454.147 234.971 461.665 230.856 468.433 225.669C480.316 216.49 491.678 206.606 503.331 197.105C505.574 195.444 507.911 193.912 510.328 192.515L513.085 193.648C507.409 227.388 501.707 261.179 495.981 295.021C483.179 285.842 482.858 283.287 485.415 270.022C488.294 255.044 491.387 240.097 494.128 225.103C494.465 223.252 493.24 221.11 492.152 216.826L446.368 258.777L433.107 253.621L447.256 239.27L446.996 239.561Z" fill="#F2C105"/>
<path id="inside_6" d="M451.758 260.996C472.659 236.517 479.979 229.907 489.518 227.337C486.288 244.656 483.179 261.455 479.841 279.355L451.758 260.996Z" fill="#F2C105"/>
</g>
<g id="orange-ray-3">
<path id="outside_7" d="M411.7 246.568C388.104 245.038 389.65 244.885 384.138 225.899C380.8 214.409 376.681 203.133 372.699 191.842C372.24 190.511 370.433 189.67 368.305 187.742C365.579 196.922 363.328 204.969 360.648 212.986C356.897 224.445 353.344 235.935 348.643 247.088C347.541 249.674 342.197 250.454 338.797 252.061L336.393 250.087L363.588 158.551L367.631 158L411.7 246.568Z" fill="#F2C105"/>
<path id="inside_7" d="M371.842 200.548C375.915 214.715 379.988 228.867 384.383 244.074L353.941 247.134C359.347 230.871 364.323 215.893 369.254 200.915L371.842 200.548Z" fill="#F2C105"/>
</g>
<g id="orange-ray-2">
<path id="outside_8" d="M262.893 310.275C249.388 282.246 235.872 254.198 222.346 226.128L223.632 223.757L316.717 259.297C308.984 268.599 301.404 270.573 292.936 266.534C281.743 261.179 270.917 255.044 259.938 249.246C256.707 247.532 253.491 245.773 250.276 244.044L248.117 245.574C249.479 249.659 250.689 253.79 252.22 257.813C257.519 271.72 263.261 285.49 268.038 299.581C269.018 302.457 266.507 306.481 265.665 309.984L262.893 310.275Z" fill="#F2C105"/>
<path id="inside_8" d="M256.875 255.121L296.688 273.296L272.311 296.613C267.273 283.088 262.403 269.976 256.875 255.121Z" fill="#F2C105"/>
</g>
<g id="orange-ray-1">
<path id="outside_9" d="M241.9 402.745L158.768 357.871C158.768 356.999 158.768 356.143 158.768 355.27C170.742 352.211 182.625 348.707 194.707 346.198C209.652 343.138 224.734 340.614 239.833 338.319C242.007 337.982 244.564 340.185 246.938 341.226C244.595 345.005 242.895 351.308 239.802 352.103C230.109 354.551 219.896 354.934 209.881 356.097C202.837 356.923 195.794 357.627 188.75 358.468L187.647 361.666C192.333 364.282 196.835 367.388 201.735 369.422C210.279 372.926 219.176 375.542 227.766 378.969C242.528 384.86 242.987 385.716 241.9 402.745Z" fill="#F2C105"/>
<path id="inside_9" d="M242.88 360.059C241.854 366.439 241.165 370.646 240.445 375.129C227.169 375.496 216.359 371.044 205.226 361.773L242.88 360.059Z" fill="#F2C105"/>
</g>
<g id="yellow-ray-9">
<path id="outside_10" d="M173.055 404.55C198.428 410.027 221.105 414.188 243.247 420.293C247.841 421.563 250.521 430.008 254.089 435.149L252.175 437.107L152 402.745L240.001 368C243.064 377.011 239.511 381.693 229.757 384.569C214.444 389.097 199.224 393.825 184.095 398.751C180.665 399.929 177.603 402.148 173.055 404.55Z" fill="#F2E405"/>
<path id="inside_10" d="M239.098 386.818C241.18 396.426 243.156 405.59 245.406 415.887L192.349 403.815C192.257 402.882 192.165 401.934 192.058 400.985L239.098 386.818Z" fill="#F2E405"/>
</g>
<g id="yellow-ray-8">
<path id="outside_11" d="M209.131 538.481C213.465 519.387 252.833 454.686 261.531 451.381C269.447 459.505 269.187 462.091 262.296 473.045C255.023 484.505 248.285 496.3 241.456 508.02C240.216 510.116 239.588 512.61 237.658 517.398C247.045 512.655 254.073 508.984 261.194 505.526C270.381 501.074 279.844 497.218 288.756 492.323C295.325 488.712 300.103 489.89 304.926 494.985C307.713 497.907 311.051 500.339 315.124 503.858C281.268 520.06 245.483 528.858 209.131 538.481Z" fill="#F2E405"/>
<path id="inside_11" d="M250.965 502.986L271.086 467.415L290.869 486.662L253.078 505.021L250.965 502.986Z" fill="#F2E405"/>
</g>
<g id="yellow-ray-7">
<path id="outside_12" d="M368.167 584.119C371.995 576.469 374.843 571.298 377.232 565.913C383.035 552.801 389.038 539.766 394.076 526.379C396.924 518.913 402.084 518.515 410.276 518.898L362.899 611.015L359.132 610.801C349.332 577.663 339.548 544.524 329.396 510.192C338.874 510.192 343.713 512.166 345.719 519.372C350.312 535.605 354.906 551.837 359.975 567.917C361.536 572.66 364.538 576.974 368.167 584.119Z" fill="#F2E405"/>
<path id="inside_12" d="M348.643 516.266C363.114 517.903 374.276 519.25 385.393 520.382C389.038 520.749 392.054 521.162 389.987 525.935C383.862 540.041 377.737 554.142 371.612 568.238C370.365 570.345 368.968 572.36 367.432 574.266C360.893 553.979 354.891 535.605 348.643 516.266Z" fill="#F2E405"/>
</g>
<g id="yellow-ray-6">
<path id="outside_13" d="M554.796 549.818C517.525 539.445 483.057 524.237 448.879 506.291C453.32 501.609 457.087 499.36 463.916 501.288C486.851 507.617 508.68 517.421 528.642 530.357C530.679 531.688 533.527 531.887 536.007 532.514L538.136 530.189C526.988 510.59 516.009 490.9 504.617 471.454C501.156 465.564 501.202 460.882 506.607 455.298C529.117 484.076 538.656 518.439 554.796 549.818Z" fill="#F2E405"/>
<path id="inside_13" d="M497.742 468.838L527.999 521.407L465.601 496.637L497.742 468.838Z" fill="#F2E405"/>
</g>
<g id="yellow-ray-5">
<path id="outside_14" d="M588.637 406.478C583.584 403.188 578.898 398.996 573.324 396.808C560.431 391.698 547.17 387.46 534.002 383.039C522.732 379.229 522.701 379.321 524.11 365.108L615.908 408.405L512.641 446.914C514.172 432.028 519.179 427.162 536.39 422.573C548.074 419.513 559.604 415.764 571.288 412.628C576.662 411.19 582.221 410.455 587.687 409.4L588.637 406.478Z" fill="#F2E405"/>
<path id="inside_14" d="M521.767 423.98C523.298 409.385 524.477 397.573 525.855 384.064L581.179 406.019L521.767 423.98Z" fill="#F2E405"/>
</g>
<g id="yellow-ray-4">
<path id="outside_15" d="M494.786 272.7C503.132 271.078 511.63 270.022 519.776 267.681C534.216 263.52 548.411 258.502 562.758 254.004C565.451 253.311 568.181 252.775 570.935 252.397L573.079 254.463C555.317 283.715 537.534 313.019 519.73 342.373C511.232 329.063 511.86 326.615 519.133 315.232C527.356 302.365 535.747 289.636 543.832 276.693C544.843 275.163 544.475 272.669 545.057 268.278L487.099 290.34L476.687 280.655L495.138 272.547L494.786 272.7Z" fill="#F2E405"/>
<path id="inside_15" d="M491.28 294.379C519.746 279.34 529.01 275.882 538.84 276.968L510.619 321.78L491.28 294.379Z" fill="#F2E405"/>
</g>
<g id="yellow-ray-3">
<path id="outside_16" d="M459.399 266.182C437.961 256.069 439.492 256.482 441.407 236.807C442.555 224.904 442.938 212.91 443.382 200.945C443.382 199.538 442.065 198.084 440.809 195.514C434.914 202.965 429.815 209.681 424.425 216.168C416.769 225.44 409.112 234.879 400.66 243.432C398.685 245.421 393.417 244.182 389.666 244.411L388.134 241.672L447.225 166.705L451.191 167.7C453.84 199.767 456.535 231.927 459.399 266.182Z" fill="#F2E405"/>
<path id="inside_16" d="M439.355 208.718L434.929 253.805L405.499 245.451L436.844 208.151L439.355 208.718Z" fill="#F2E405"/>
</g>
<g id="yellow-ray-2">
<path id="outside_17" d="M297.561 270.512L290.946 177.4L293.013 175.686L366.391 243.003C355.764 248.787 348.016 247.807 341.615 240.938C333.193 231.758 325.399 222.15 317.345 212.695C314.956 209.972 312.644 207.157 310.362 204.357L307.805 204.954C307.56 209.253 307.162 213.537 307.1 217.821C306.886 232.707 307.101 247.624 306.366 262.48C306.212 265.54 302.43 268.339 300.24 271.277L297.561 270.512Z" fill="#F2E405"/>
<path id="inside_17" d="M312.353 217.025L342.641 248.603L311.357 261.286C311.679 246.859 312.001 232.921 312.353 217.025Z" fill="#F2E405"/>
</g>
<g id="yellow-ray-1">
<path id="outside_18" d="M243.875 348.692L183.146 276.31L184.11 273.893C196.36 275.423 208.702 276.601 220.86 278.712C235.897 281.328 250.842 284.603 265.711 288.045C267.855 288.535 269.416 291.518 271.239 293.354C267.671 296.016 263.766 301.248 260.52 300.835C250.613 299.535 240.981 296.138 231.242 293.522L210.831 287.999L208.626 290.539C212.01 294.715 215.026 299.244 218.855 302.947C225.485 309.372 232.789 315.079 239.496 321.428C251.072 332.367 251.118 333.255 243.875 348.692Z" fill="#F2E405"/>
<path id="inside_18" d="M260.566 309.418L252.726 322.514C240.261 317.925 231.855 309.831 224.888 297.072L260.566 309.418Z" fill="#F2E405"/>
</g>
<path id="sun-stroke-outline" d="M384.689 521.269C463 521.269 526.483 459.217 526.483 382.672C526.483 306.127 463 244.074 384.689 244.074C306.378 244.074 242.895 306.127 242.895 382.672C242.895 459.217 306.378 521.269 384.689 521.269Z" stroke="#F2C105" stroke-width="8" stroke-miterlimit="10"/>
<path id="yellow-circle" d="M384.383 498.32C448.308 498.32 500.13 446.542 500.13 382.672C500.13 318.801 448.308 267.024 384.383 267.024C320.457 267.024 268.635 318.801 268.635 382.672C268.635 446.542 320.457 498.32 384.383 498.32Z" fill="#F2E405"/>
</g>
</svg>
