<svg width="768" height="768" viewBox="0 0 768 768" fill="none" xmlns="http://www.w3.org/2000/svg">
<g id="sun-ray paths" clip-path="url(#clip0_104_23)">
<rect width="768" height="768" fill="white"/>
<path id="YR1" d="M258.223 317.415L-1.72363 169.061" stroke="black"/>
<path id="YR2" d="M324.303 253.522L206.146 -26.9923" stroke="black"/>
<path id="YR3" d="M417.954 250.896L496.288 -3.36084" stroke="black"/>
<path id="YR4" d="M491.036 303.848L766.737 123.549" stroke="black"/>
<path id="YR5" d="M517.294 400.125L756.234 410.628" stroke="black"/>
<path id="YR6" d="M479.658 481.084L757.109 736.655" stroke="black"/>
<path id="YR7" d="M366.315 520.47L336.994 774.29" stroke="black"/>
<path id="YR8" d="M276.603 474.083L-19.2285 715.649" stroke="black"/>
<path id="YR9" d="M241.593 397.499H-55.5508" stroke="black"/>
<path id="OR1" d="M237.217 367.741L-42.86 305.599" stroke="black"/>
<path id="OR2" d="M290.607 292.47L16.6565 29.023" stroke="black"/>
<path id="OR3" d="M365.292 251.498L358.875 -55" stroke="black"/>
<path id="OR4" d="M455.152 274.09L624.948 -12.1133" stroke="black"/>
<path id="OR5" d="M506.048 354.284L775.49 244.332" stroke="black"/>
<path id="OR7" d="M421.893 516.532L503.29 857" stroke="black"/>
<path id="OR8" d="M320.365 509.53L175.95 737.967" stroke="black"/>
<path id="OR9" d="M253.846 449.138L-98.0001 587.426" stroke="black"/>
<path id="OR6" d="M505.87 434.259L779.866 541.914" stroke="black"/>
</g>
<defs>
<clipPath id="clip0_104_23">
<rect width="768" height="768" fill="white"/>
</clipPath>
</defs>
</svg>
