<svg width="768" height="768" viewBox="0 0 768 768" fill="none" xmlns="http://www.w3.org/2000/svg">
<g id="video-games-camp-icon">
<rect width="768" height="768" fill="white"/>
<path id="controller-shadow" d="M454.583 257.79C459.478 252.918 465.354 249.143 471.82 246.717C481.806 243.032 490.143 243.866 501.079 245.107C516.086 246.813 526.285 250.673 541.603 256.549C560.449 263.724 564.87 267.719 567.817 271.345C572.042 276.7 574.802 283.063 575.825 289.807L585.675 295.353C604.781 335.342 621.429 376.46 635.525 418.478C635.525 418.478 658.23 486.236 655.826 558.105C655.593 565.436 654.759 579.825 644.754 591.965C639.905 597.772 633.757 602.357 626.808 605.349C619.86 608.34 612.305 609.655 604.754 609.185C589.882 607.925 580.052 598.81 568.438 587.64C523.338 544.278 520.856 536.657 508.738 527.329C495.63 517.225 487.293 517.458 379.527 516.644C294.989 516.004 274.3 515.654 255.803 532.158C249.715 537.607 233.97 553.761 220.107 569.004C203.839 586.961 199.419 593.516 188.095 599.78C184.217 601.991 161.454 614.518 143.79 607.789C113.795 596.348 113.194 535.125 113.019 517.303C112.806 497.348 115.075 467.425 146.873 379.421C159.418 344.65 171.052 316.181 179.486 296.323L192.4 290.176C192.676 284.221 194.689 278.478 198.189 273.654C201.69 268.829 206.525 265.135 212.099 263.026C232.012 253.969 241.978 249.451 258.265 246.406C275.154 243.265 283.937 241.752 294.562 245.786C300.577 248.113 306.034 251.681 310.578 256.258L454.583 257.79Z" fill="#4F4F51"/>
<path id="controller-color" d="M451.461 244.738C456.232 239.996 461.956 236.321 468.253 233.956C477.947 230.349 486.091 231.183 496.755 232.385C511.355 234.053 521.224 237.815 536.212 243.517C554.574 250.517 558.879 254.396 561.748 257.926C565.841 263.156 568.513 269.355 569.504 275.922L579.082 281.313C597.668 320.25 613.856 360.286 627.556 401.199C627.556 401.199 649.679 467.134 647.333 537.277C647.1 544.414 646.286 558.435 636.553 570.245C631.831 575.904 625.846 580.372 619.079 583.289C612.312 586.207 604.954 587.491 597.599 587.039C583.115 585.798 573.537 576.935 562.233 566.056C518.316 523.819 515.892 516.391 504.065 507.316C491.307 497.464 483.182 497.619 378.228 496.902C295.9 496.281 275.755 495.952 257.742 512.106C251.809 517.419 236.414 533.147 222.977 548.079C207.136 565.533 202.831 571.932 191.799 578.041C187.921 580.193 165.856 592.411 148.657 585.798C119.457 574.667 118.856 515.034 118.681 497.677C118.487 478.285 120.62 449.099 151.643 363.402C163.878 329.543 175.201 301.811 183.403 282.477L196.006 276.484C196.291 270.697 198.257 265.118 201.663 260.43C205.069 255.743 209.767 252.15 215.182 250.091C234.572 241.267 244.266 236.865 260.127 233.917C276.588 230.853 285.139 229.379 295.493 233.316C301.314 235.597 306.596 239.064 311.005 243.497L451.461 244.738Z" fill="#1E1E20" stroke="#231F20" stroke-miterlimit="10"/>
<g id="big-bottom-right-gray-button">
<path id="big-bottom-right-gray-button_2" d="M483.597 427.473C486.198 411.446 475.316 396.345 459.292 393.743C443.268 391.142 428.169 402.025 425.568 418.052C422.967 434.079 433.848 449.181 449.873 451.782C465.897 454.384 480.996 443.5 483.597 427.473Z" fill="#373737"/>
<path id="big-bottom-right-gray-button-shadow" d="M483.997 422.744C484.046 430.695 481.424 438.433 476.551 444.716C473.913 447.967 470.607 450.613 466.857 452.473C463.024 454.387 458.799 455.383 454.515 455.383C450.232 455.383 446.007 454.387 442.174 452.473C438.422 450.615 435.115 447.969 432.479 444.716C427.606 438.441 424.984 430.709 425.034 422.763C425.034 414.961 428.133 407.478 433.649 401.961C439.165 396.444 446.646 393.345 454.447 393.345C462.248 393.345 469.73 396.444 475.246 401.961C480.762 407.478 483.861 414.961 483.861 422.763L483.997 422.744ZM483.997 422.744C483.997 414.947 480.9 407.469 475.387 401.956C469.875 396.442 462.398 393.345 454.602 393.345C446.807 393.345 439.33 396.442 433.818 401.956C428.305 407.469 425.208 414.947 425.208 422.744C425.224 426.591 426.134 430.382 427.865 433.817C429.589 437.15 432.017 440.068 434.98 442.369C440.658 446.576 447.537 448.847 454.602 448.847C461.668 448.847 468.547 446.576 474.225 442.369C477.187 440.073 479.61 437.153 481.321 433.817C483.059 430.385 483.962 426.591 483.958 422.744H483.997Z" fill="#141313"/>
</g>
<g id="big-left-gray-button">
<path id="big-left-gray-button_2" d="M281.767 345.945C284.368 329.918 273.486 314.817 257.462 312.215C241.438 309.614 226.339 320.497 223.738 336.524C221.136 352.551 232.018 367.653 248.042 370.254C264.067 372.856 279.166 361.972 281.767 345.945Z" fill="#373737"/>
<path id="big-left-gray-button-shadow" d="M282.192 341.217C282.249 349.173 279.619 356.915 274.727 363.189C272.094 366.445 268.786 369.092 265.032 370.946C261.2 372.86 256.975 373.856 252.691 373.856C248.407 373.856 244.182 372.86 240.35 370.946C236.599 369.085 233.293 366.44 230.655 363.189C225.782 356.906 223.16 349.169 223.209 341.217C223.209 333.415 226.308 325.932 231.824 320.415C237.341 314.898 244.822 311.798 252.623 311.798C260.424 311.798 267.906 314.898 273.422 320.415C278.938 325.932 282.037 333.415 282.037 341.217H282.192ZM282.192 341.217C282.293 337.294 281.607 333.391 280.176 329.737C278.744 326.083 276.596 322.753 273.857 319.942C271.119 317.132 267.845 314.899 264.23 313.374C260.615 311.848 256.731 311.063 252.807 311.063C248.884 311.063 245 311.848 241.384 313.374C237.769 314.899 234.496 317.132 231.757 319.942C229.019 322.753 226.87 326.083 225.439 329.737C224.007 333.391 223.322 337.294 223.423 341.217C223.427 345.072 224.337 348.871 226.079 352.31C227.809 355.639 230.236 358.556 233.195 360.862C238.87 365.064 245.746 367.333 252.807 367.333C259.869 367.333 266.744 365.064 272.42 360.862C275.384 358.561 277.812 355.643 279.536 352.31C281.253 348.865 282.143 345.067 282.134 341.217H282.192Z" fill="#141313"/>
</g>
<g id="blue-button">
<path id="blue-button_2" d="M488.573 358.399C498.253 358.399 506.101 350.55 506.101 340.868C506.101 331.186 498.253 323.337 488.573 323.337C478.892 323.337 471.045 331.186 471.045 340.868C471.045 350.55 478.892 358.399 488.573 358.399Z" fill="#15B6EE"/>
<path id="blue-button-shadow" d="M506.391 340.907C506.54 345.736 504.92 350.453 501.835 354.171C500.235 356.127 498.22 357.703 495.936 358.785C493.653 359.867 491.158 360.429 488.631 360.429C486.104 360.429 483.609 359.867 481.325 358.785C479.042 357.703 477.027 356.127 475.427 354.171C472.378 350.432 470.756 345.731 470.851 340.907C470.882 337.436 471.935 334.052 473.878 331.176C475.821 328.3 478.568 326.06 481.776 324.736C484.984 323.413 488.511 323.063 491.916 323.732C495.321 324.4 498.454 326.057 500.924 328.496C504.31 331.75 506.275 336.211 506.391 340.907ZM505.81 340.907C505.878 336.309 504.129 331.869 500.943 328.554C498.499 326.128 495.393 324.479 492.015 323.815C488.637 323.152 485.137 323.502 481.958 324.822C478.778 326.143 476.06 328.375 474.146 331.237C472.232 334.099 471.206 337.463 471.2 340.907C471.25 343.156 471.797 345.366 472.803 347.377C473.809 349.389 475.248 351.153 477.016 352.542C480.344 355.114 484.445 356.481 488.65 356.421C492.835 356.433 496.896 355.002 500.148 352.368C501.838 350.98 503.229 349.265 504.239 347.326C505.197 345.319 505.713 343.13 505.752 340.907H505.81Z" fill="#0F5163"/>
</g>
<g id="red-button">
<path id="red-button_2" d="M560.372 358.399C570.052 358.399 577.9 350.55 577.9 340.868C577.9 331.186 570.052 323.337 560.372 323.337C550.691 323.337 542.844 331.186 542.844 340.868C542.844 350.55 550.691 358.399 560.372 358.399Z" fill="#E83A39"/>
<path id="red-button-shadow" d="M578.19 340.907C578.339 345.736 576.719 350.453 573.634 354.171C572.034 356.127 570.019 357.703 567.735 358.785C565.452 359.867 562.957 360.429 560.43 360.429C557.903 360.429 555.408 359.867 553.124 358.785C550.841 357.703 548.826 356.127 547.226 354.171C544.227 350.447 542.634 345.785 542.727 341.004C542.759 337.533 543.812 334.149 545.755 331.273C547.698 328.397 550.445 326.157 553.653 324.833C556.86 323.51 560.387 323.16 563.792 323.829C567.198 324.497 570.331 326.154 572.8 328.592C576.135 331.836 578.07 336.256 578.19 340.907ZM577.609 340.907C577.677 336.309 575.928 331.869 572.742 328.554C570.298 326.128 567.192 324.479 563.814 323.815C560.436 323.152 556.936 323.502 553.757 324.822C550.577 326.143 547.859 328.375 545.945 331.237C544.031 334.099 543.005 337.463 542.999 340.907C543.049 343.156 543.596 345.366 544.602 347.377C545.608 349.389 547.047 351.153 548.815 352.543C552.143 355.115 556.244 356.483 560.449 356.421C564.64 356.433 568.707 355.002 571.966 352.368C573.656 350.98 575.048 349.265 576.058 347.326C577.029 345.322 577.558 343.133 577.609 340.907Z" fill="#701818"/>
</g>
<g id="green-button">
<path id="green-button_2" d="M523.512 393.345C533.193 393.345 541.04 385.496 541.04 375.814C541.04 366.132 533.193 358.283 523.512 358.283C513.832 358.283 505.984 366.132 505.984 375.814C505.984 385.496 513.832 393.345 523.512 393.345Z" fill="#01E32F"/>
<path id="green-button-shadow" d="M541.312 375.814C541.466 380.64 539.852 385.357 536.775 389.078C535.145 391.012 533.116 392.568 530.826 393.64C528.536 394.711 526.04 395.272 523.512 395.284C520.989 395.267 518.501 394.694 516.225 393.604C513.95 392.515 511.942 390.936 510.347 388.981C507.357 385.252 505.765 380.594 505.849 375.814C506.001 371.212 507.936 366.849 511.244 363.647C514.553 360.446 518.976 358.656 523.58 358.656C528.184 358.656 532.607 360.446 535.916 363.647C539.225 366.849 541.16 371.212 541.312 375.814ZM540.749 375.814C540.827 373.492 540.437 371.179 539.602 369.011C538.768 366.843 537.506 364.865 535.891 363.195C534.276 361.526 532.342 360.198 530.204 359.291C528.066 358.384 525.767 357.917 523.444 357.917C521.122 357.917 518.823 358.384 516.685 359.291C514.547 360.198 512.613 361.526 510.998 363.195C509.383 364.865 508.121 366.843 507.286 369.011C506.452 371.179 506.062 373.492 506.139 375.814C506.187 378.063 506.733 380.274 507.739 382.286C508.745 384.298 510.185 386.062 511.956 387.449C515.265 390.029 519.344 391.422 523.539 391.404C527.734 391.387 531.801 389.96 535.088 387.352C536.772 385.957 538.157 384.235 539.16 382.291C540.145 380.27 540.687 378.061 540.749 375.814Z" fill="#10511B"/>
</g>
<g id="yellow-button">
<path id="yellow-button_2" d="M523.512 321.417C533.193 321.417 541.04 313.568 541.04 303.886C541.04 294.204 533.193 286.355 523.512 286.355C513.832 286.355 505.984 294.204 505.984 303.886C505.984 313.568 513.832 321.417 523.512 321.417Z" fill="#FEED21"/>
<path id="yellow-button-shadow" d="M541.312 303.886C541.466 308.713 539.852 313.43 536.775 317.151C535.165 319.101 533.143 320.67 530.854 321.743C528.565 322.817 526.066 323.369 523.538 323.36C521.01 323.351 518.515 322.78 516.234 321.69C513.953 320.599 511.942 319.016 510.347 317.054C507.357 313.324 505.765 308.666 505.849 303.886C506.001 299.284 507.936 294.922 511.244 291.72C514.553 288.518 518.976 286.728 523.58 286.728C528.184 286.728 532.607 288.518 535.916 291.72C539.225 294.922 541.16 299.284 541.312 303.886ZM540.749 303.886C540.827 301.565 540.437 299.251 539.602 297.083C538.768 294.915 537.506 292.938 535.891 291.268C534.276 289.598 532.342 288.27 530.204 287.363C528.066 286.456 525.767 285.989 523.444 285.989C521.122 285.989 518.823 286.456 516.685 287.363C514.547 288.27 512.613 289.598 510.998 291.268C509.383 292.938 508.121 294.915 507.286 297.083C506.452 299.251 506.062 301.565 506.139 303.886C506.189 306.135 506.737 308.345 507.743 310.357C508.748 312.369 510.187 314.133 511.956 315.522C515.282 318.097 519.384 319.465 523.59 319.4C527.78 319.409 531.846 317.978 535.107 315.347C536.796 313.956 538.182 312.233 539.179 310.286C540.155 308.29 540.69 306.107 540.749 303.886Z" fill="#6D6411"/>
</g>
<g id="plus-button">
<path id="circle-plus-button" d="M363.759 429.569C367.832 404.471 350.792 380.823 325.698 376.749C300.605 372.675 276.96 389.718 272.887 414.816C268.814 439.913 285.854 463.562 310.948 467.636C336.041 471.71 359.685 454.666 363.759 429.569Z" fill="#373737"/>
<path id="circle-plus-button-shadow" d="M364.383 422.182C364.477 434.63 360.379 446.748 352.75 456.584C348.666 461.735 343.513 465.937 337.645 468.899C331.64 471.889 325.023 473.446 318.314 473.446C311.606 473.446 304.988 471.889 298.983 468.899C293.138 465.954 288.004 461.771 283.937 456.643C276.33 446.802 272.235 434.698 272.303 422.259C272.551 410.205 277.512 398.728 286.123 390.291C294.734 381.853 306.308 377.127 318.363 377.127C330.417 377.127 341.992 381.853 350.603 390.291C359.214 398.728 364.175 410.205 364.422 422.259L364.383 422.182ZM364.383 422.182C364.136 410.138 359.179 398.67 350.575 390.24C341.972 381.81 330.407 377.088 318.363 377.088C306.318 377.088 294.754 381.81 286.15 390.24C277.546 398.67 272.589 410.138 272.342 422.182C272.355 428.207 273.783 434.146 276.511 439.519C279.194 444.753 283.001 449.329 287.66 452.919C292.106 456.351 297.12 458.977 302.473 460.676C312.822 463.978 323.942 463.978 334.291 460.676C339.64 458.98 344.648 456.354 349.085 452.919C353.737 449.335 357.538 444.766 360.215 439.538C362.919 434.153 364.321 428.208 364.306 422.182H364.383Z" fill="#141313"/>
<path id="plus-button_2" d="M352.963 411.942V423.442C352.953 425.584 352.098 427.635 350.584 429.149C349.07 430.663 347.019 431.519 344.878 431.529H332.158V444.251C332.148 446.396 331.29 448.449 329.772 449.964C328.254 451.479 326.198 452.332 324.054 452.337H312.556C310.414 452.327 308.364 451.472 306.85 449.957C305.336 448.443 304.481 446.392 304.47 444.251V431.529H291.751C289.61 431.519 287.559 430.663 286.045 429.149C284.531 427.635 283.676 425.584 283.666 423.442V411.942C283.671 409.799 284.524 407.745 286.039 406.23C287.555 404.714 289.608 403.861 291.751 403.856H304.47V391.134C304.475 388.989 305.328 386.933 306.843 385.415C308.358 383.896 310.411 383.038 312.556 383.028H324.054C326.202 383.033 328.26 383.889 329.779 385.408C331.298 386.927 332.153 388.986 332.158 391.134V403.856H344.82C345.886 403.85 346.942 404.056 347.929 404.46C348.915 404.863 349.812 405.458 350.569 406.209C351.325 406.96 351.926 407.853 352.337 408.837C352.748 409.821 352.961 410.876 352.963 411.942Z" fill="#888888"/>
<path id="plus-button-shadow" d="M352.963 411.942V421.173C353.051 422.711 352.953 424.254 352.672 425.769C352.301 427.315 351.524 428.734 350.423 429.881C349.279 431.113 347.758 431.932 346.099 432.208C345.689 432.282 345.275 432.327 344.858 432.343H341.388C339.856 432.343 338.324 432.247 336.773 432.15L334.466 432.014H333.322C332.907 432.021 332.502 431.884 332.178 431.626V443.262C332.233 444.564 332.116 445.868 331.829 447.14C331.496 448.539 330.836 449.838 329.902 450.93C328.968 452.023 327.787 452.877 326.458 453.423C325.744 453.731 324.984 453.915 324.209 453.966C323.563 454.004 322.915 454.004 322.27 453.966C320.971 453.966 319.672 453.831 318.392 453.869H314.514H312.575C311.796 453.834 311.026 453.691 310.287 453.443C308.846 452.964 307.56 452.107 306.564 450.96C305.65 449.847 305.054 448.507 304.839 447.082C304.617 445.802 304.526 444.502 304.567 443.203V431.471C302.014 431.983 299.415 432.23 296.811 432.208C295.512 432.208 294.213 432.208 292.934 432.208C291.547 432.288 290.161 432.049 288.881 431.51C287.652 430.936 286.573 430.084 285.732 429.02C284.89 427.956 284.309 426.71 284.034 425.381C283.801 424.103 283.723 422.8 283.801 421.503V413.746C283.719 412.448 283.804 411.144 284.053 409.867C284.374 408.606 284.994 407.442 285.862 406.473C286.729 405.504 287.819 404.759 289.036 404.302C290.277 403.851 291.598 403.666 292.914 403.759H304.664V392.123C304.572 390.809 304.744 389.491 305.168 388.244C305.624 387.022 306.368 385.927 307.337 385.053C308.305 384.179 309.47 383.551 310.733 383.222C312.007 382.957 313.312 382.865 314.611 382.95H322.367C323.666 382.876 324.969 382.968 326.245 383.222C327.504 383.552 328.666 384.181 329.631 385.055C330.597 385.929 331.337 387.023 331.79 388.244C332.23 389.487 332.408 390.808 332.313 392.123V403.759H344.82C346.966 403.759 349.024 404.61 350.544 406.126C352.063 407.642 352.919 409.699 352.924 411.845L352.963 411.942ZM352.963 411.942C352.958 409.796 352.102 407.739 350.582 406.223C349.063 404.707 347.005 403.856 344.858 403.856H332.158V392.22C332.253 390.905 332.075 389.584 331.635 388.341C331.182 387.12 330.441 386.026 329.476 385.152C328.511 384.278 327.349 383.649 326.089 383.319C324.813 383.064 323.51 382.973 322.212 383.047H314.456C313.157 382.962 311.852 383.054 310.578 383.319C309.315 383.647 308.15 384.276 307.182 385.15C306.213 386.024 305.469 387.119 305.013 388.341C304.589 389.588 304.417 390.906 304.509 392.22V403.856H292.759C291.443 403.763 290.122 403.948 288.881 404.399C287.663 404.856 286.574 405.601 285.707 406.57C284.839 407.539 284.218 408.703 283.898 409.964C283.649 411.241 283.564 412.545 283.646 413.843V421.6C283.542 422.901 283.647 424.21 283.956 425.478C284.339 426.675 285.018 427.756 285.93 428.62C286.842 429.485 287.957 430.105 289.172 430.424C289.742 430.585 290.326 430.689 290.917 430.734C291.479 430.734 292.119 430.734 292.856 430.734C294.155 430.734 295.454 430.734 296.734 430.734C299.338 430.712 301.937 430.959 304.49 431.471V443.203C304.341 444.496 304.613 445.801 305.265 446.927C305.936 447.949 306.831 448.805 307.883 449.428C308.814 450.031 309.867 450.421 310.966 450.573C311.481 450.63 312.001 450.63 312.517 450.573H314.456H318.334C319.633 450.573 320.932 450.573 322.212 450.456C322.851 450.456 323.53 450.456 324.15 450.456C324.68 450.485 325.211 450.485 325.74 450.456C326.952 450.384 328.124 450 329.144 449.34C330.163 448.681 330.994 447.77 331.557 446.694C332.121 445.518 332.356 444.211 332.236 442.912V431.277C332.56 431.018 332.965 430.881 333.38 430.889H334.524L336.831 430.753C338.382 430.753 339.914 430.579 341.446 430.559H343.753C344.548 430.559 345.285 430.559 345.944 430.559C347.336 430.397 348.667 429.897 349.822 429.105C351.067 428.251 352.016 427.031 352.537 425.614C352.934 424.13 353.071 422.588 352.944 421.057L352.963 411.942Z" fill="#231F20"/>
</g>
<g id="small-right-gray-button">
<path id="small-right-gray-button_2" d="M425.557 354.133C431.864 354.133 436.977 349.019 436.977 342.71C436.977 336.402 431.864 331.288 425.557 331.288C419.25 331.288 414.137 336.402 414.137 342.71C414.137 349.019 419.25 354.133 425.557 354.133Z" fill="#373737"/>
<path id="small-right-gray-button-shadow" d="M437.171 342.73C437.261 345.877 436.207 348.95 434.205 351.379C433.128 352.622 431.808 353.631 430.327 354.346C428.818 355.041 427.179 355.404 425.518 355.413C423.86 355.399 422.225 355.022 420.729 354.307C419.278 353.573 417.991 352.55 416.948 351.301C414.988 348.88 413.945 345.845 414.001 342.73C414.022 339.683 415.249 336.768 417.413 334.624C418.479 333.564 419.744 332.725 421.135 332.156C422.526 331.587 424.015 331.299 425.518 331.307C428.57 331.302 431.503 332.496 433.682 334.633C435.862 336.77 437.115 339.678 437.171 342.73ZM436.803 342.73C436.803 339.736 435.614 336.866 433.498 334.749C431.381 332.632 428.511 331.443 425.518 331.443C422.525 331.443 419.655 332.632 417.539 334.749C415.423 336.866 414.234 339.736 414.234 342.73C414.262 344.19 414.614 345.626 415.265 346.934C415.915 348.242 416.848 349.389 417.995 350.293C420.142 351.984 422.795 352.903 425.528 352.903C428.261 352.903 430.914 351.984 433.061 350.293C434.193 349.377 435.113 348.226 435.759 346.921C436.405 345.615 436.761 344.186 436.803 342.73Z" fill="#070707"/>
</g>
<g id="small-left-gray-button">
<path id="small-left-gray-button_2" d="M346.002 354.133C352.31 354.133 357.423 349.019 357.423 342.71C357.423 336.402 352.31 331.288 346.002 331.288C339.695 331.288 334.582 336.402 334.582 342.71C334.582 349.019 339.695 354.133 346.002 354.133Z" fill="#373737"/>
<path id="small-left-gray-button-shadow" d="M357.597 342.73C357.694 345.875 356.647 348.948 354.65 351.379C353.573 352.622 352.253 353.631 350.772 354.346C349.263 355.037 347.624 355.401 345.964 355.413C344.305 355.401 342.67 355.024 341.174 354.307C339.72 353.578 338.432 352.554 337.393 351.301C335.434 348.88 334.39 345.845 334.446 342.73C334.462 339.688 335.683 336.777 337.842 334.636C340.002 332.494 342.923 331.297 345.964 331.307C349.012 331.307 351.94 332.504 354.115 334.64C356.291 336.776 357.541 339.681 357.597 342.73ZM357.229 342.73C357.258 341.242 356.992 339.763 356.446 338.378C355.9 336.993 355.085 335.73 354.049 334.662C352.997 333.596 351.745 332.75 350.363 332.172C348.982 331.595 347.5 331.297 346.002 331.297C344.505 331.297 343.023 331.595 341.641 332.172C340.26 332.75 339.007 333.596 337.956 334.662C336.904 335.72 336.073 336.976 335.51 338.358C334.948 339.739 334.665 341.219 334.679 342.71C334.708 344.169 335.058 345.603 335.705 346.91C336.352 348.218 337.279 349.366 338.421 350.274C340.575 351.982 343.254 352.893 346.002 352.853C348.734 352.87 351.386 351.937 353.506 350.215C354.626 349.306 355.537 348.168 356.18 346.877C356.822 345.585 357.18 344.171 357.229 342.73Z" fill="#070707"/>
</g>
<g id="white-button">
<path id="white-button_2" d="M383.211 308.308C397.389 308.308 408.882 296.812 408.882 282.632C408.882 268.451 397.389 256.956 383.211 256.956C369.033 256.956 357.539 268.451 357.539 282.632C357.539 296.812 369.033 308.308 383.211 308.308Z" fill="white"/>
<path id="white-button-shadow" d="M409.309 282.729C409.513 289.788 407.142 296.681 402.639 302.121C400.284 304.994 397.318 307.305 393.958 308.888C390.597 310.47 386.927 311.283 383.213 311.268C379.498 311.253 375.834 310.411 372.487 308.802C369.139 307.193 366.192 304.858 363.86 301.966C359.474 296.511 357.142 289.689 357.268 282.69C357.308 277.603 358.846 272.641 361.691 268.424C364.536 264.207 368.561 260.923 373.262 258.981C377.963 257.04 383.132 256.528 388.123 257.51C393.113 258.491 397.704 260.923 401.32 264.5C406.251 269.306 409.116 275.845 409.309 282.729ZM408.456 282.729C408.521 279.417 407.941 276.123 406.749 273.032C405.514 269.913 403.668 267.071 401.32 264.674C397.767 261.063 393.216 258.595 388.251 257.587C383.286 256.579 378.133 257.077 373.453 259.017C368.773 260.956 364.778 264.249 361.981 268.474C359.184 272.698 357.711 277.662 357.752 282.729C357.815 286.013 358.604 289.244 360.062 292.187C361.52 295.131 363.612 297.716 366.187 299.756C371.04 303.566 377.041 305.617 383.211 305.573C389.347 305.567 395.298 303.467 400.079 299.62C402.555 297.58 404.593 295.06 406.071 292.212C407.548 289.263 408.362 286.026 408.456 282.729Z" fill="#AFAFAF"/>
</g>
</g>
</svg>
