<svg width="768" height="768" viewBox="0 0 768 768" fill="none" xmlns="http://www.w3.org/2000/svg">
<g id="wizarding-games-camp-icon">
<rect width="768" height="768" fill="white"/>
<g id="wand">
<path id="background-of-text" d="M388.527 514.348L374.246 514.987C374.508 497.878 374.765 480.768 375.014 463.66C374.971 462.9 375.091 462.141 375.367 461.432C375.644 460.724 376.069 460.084 376.615 459.555C379.044 457.498 384.528 458.561 389.46 463.28L388.527 514.348Z" fill="#B79E6B"/>
<path id="top-of-wand" d="M389.418 464.365C387.9 463.804 386.34 463.364 384.753 463.049C382.608 462.81 380.458 462.843 378.257 462.826C378.074 462.823 377.895 462.777 377.732 462.693C376.606 462.077 375.693 462.161 375.014 463.659C374.215 462.726 373.527 461.822 372.73 461.01C369.745 457.96 367.498 454.517 367.584 449.973C367.63 448.495 367.616 447.018 367.723 445.539C368.122 441.04 367.482 436.327 369.209 431.949C370.126 429.633 371.225 427.396 372.394 425.147C374.033 421.975 375.012 418.504 375.272 414.943C376.243 405.677 376.47 396.347 375.951 387.043C375.316 379.526 375.695 371.982 375.702 364.435C375.699 358.123 375.596 351.793 375.965 345.506C376.415 340.426 376.172 335.308 375.244 330.292C374.486 326.987 372.95 323.975 372.183 320.72C371.648 317.846 371.295 314.941 371.126 312.023C371.077 311.481 371.288 310.895 371.219 310.353C370.809 306.875 371.653 303.366 373.6 300.458C376.683 295.416 377.144 289.791 377.475 284.198C377.725 279.22 377.412 274.25 377.521 269.233C377.715 257.12 378.059 244.994 378.193 232.882C378.239 228.55 378.054 224.219 377.639 219.906C377.337 217.897 376.707 215.951 375.776 214.145C373.839 210.014 373.808 205.673 373.646 201.303C373.703 197.792 374.353 194.317 375.568 191.023C377.196 185.09 378.005 178.961 377.974 172.806C378.288 157.626 378.532 142.457 378.957 127.285C379.026 122.812 378.592 118.345 377.664 113.968C376.845 109.595 376.86 105.107 377.709 100.742C379.764 89.3639 379.948 77.874 379.96 66.3564C379.962 56.628 380.135 46.907 380.186 37.1677C380.187 35.1435 380.056 33.1212 379.796 31.1134C379.667 30.5834 379.735 30.0249 379.988 29.5421C380.241 29.0593 380.661 28.6852 381.17 28.4897C381.79 28.1976 382.474 28.0646 383.159 28.1027C383.844 28.1408 384.509 28.3487 385.095 28.7077C385.68 29.0667 386.166 29.5655 386.511 30.1593C386.856 30.753 387.047 31.423 387.068 32.1088C386.872 47.7396 386.716 63.4099 386.469 78.9912C386.232 85.31 386.852 91.6328 388.314 97.787C389.344 101.791 388.786 105.78 388.6 109.752C388.566 110.768 388.633 111.762 388.59 112.808C388.581 113.511 388.755 114.333 388.504 114.939C386.768 118.775 387.588 122.833 387.12 126.769C386.652 130.706 387.2 134.758 387.126 138.819C387.07 143.966 386.641 149.108 386.836 154.24C387.232 164.968 387.869 175.651 388.538 186.425C388.638 187.183 388.871 187.918 389.227 188.595C391.532 193.328 392.635 198.555 392.441 203.813C392.209 206.871 392.26 209.966 392.029 213.025C391.919 213.976 391.571 214.883 391.017 215.663C389.874 217.301 389.241 219.241 389.198 221.238L388.837 239.103C388.609 250.352 388.351 261.612 388.153 272.851C388.122 274.64 388.322 276.416 388.422 278.194C388.61 282.331 388.948 286.417 389.016 290.536C388.903 294.168 389.943 297.745 391.987 300.752C393.331 302.632 394.006 304.908 393.902 307.215C393.862 309.5 393.983 311.786 394.265 314.054C394.734 317.312 394.01 320.628 392.227 323.391C390.409 326.243 389.468 329.566 389.519 332.95C389.392 344.258 389.376 355.574 389.189 366.863C389.018 379.137 388.847 391.411 388.425 403.698C388.188 410.074 388.251 416.424 390.272 422.575C390.891 424.35 391.638 426.079 392.507 427.747C394.935 432.35 396.046 437.532 395.717 442.723C395.704 443.539 395.761 444.355 395.887 445.162C396.046 445.891 396.129 446.634 396.135 447.38C395.694 450.532 395.729 453.928 394.529 456.761C393.33 459.593 390.989 462.131 389.418 464.365Z" fill="url(#paint0_linear_2:39)"/>
<path id="bottom-of-wand" d="M388.428 513.204C389.074 519.566 389.612 525.387 390.29 531.186C390.672 536.041 391.365 540.868 392.365 545.636C393.312 548.898 394.832 551.965 396.855 554.694C399.061 557.804 400.306 561.493 400.436 565.302C400.585 568.295 400.363 571.303 400.472 574.297C400.611 577.872 401.021 581.434 401.13 585C401.057 586.41 400.82 587.807 400.424 589.161C400.125 590.513 398.895 590.923 397.86 591.522C397.168 591.942 396.449 592.315 395.707 592.64C390.456 594.79 391.431 593.539 391.346 599.449C391.295 603.058 391.856 606.648 390.577 610.154C390.531 610.343 390.524 610.539 390.556 610.73C390.589 610.921 390.66 611.104 390.766 611.267C392.362 613.012 391.7 614.941 391.391 616.896C391.002 618.252 390.926 619.679 391.167 621.07C392.222 624.069 391.61 627.214 391.76 630.287C391.843 632.245 391.775 634.256 391.777 636.236C391.845 636.741 391.837 637.252 391.752 637.754C390.193 642.592 392.456 647.02 393.225 651.601C393.366 652.459 393.684 653.279 394.159 654.009C398.024 659.91 399.075 666.426 399.048 673.361C399.229 676.651 398.736 679.941 397.598 683.031C397.262 683.724 396.778 684.335 396.18 684.822C394.714 686.13 393.126 687.32 391.67 688.659C390.215 689.997 390.277 691.936 390.689 693.759C392.458 701.773 395.47 709.462 399.614 716.548C400.643 718.24 401.513 720.023 402.214 721.875C403.107 724.244 402.609 725.166 400.152 726.047C396.118 727.644 391.839 728.535 387.501 728.681C381.071 728.798 374.663 728.443 368.588 725.721C367.926 725.464 367.291 725.14 366.693 724.755C364.792 723.407 364.369 722.107 365.379 719.981C366.389 717.855 367.752 715.734 369.034 713.634C372.915 707.04 375.447 699.739 376.481 692.155C376.554 691.651 376.535 691.139 376.567 690.636C376.666 689.933 376.528 689.217 376.174 688.602C375.819 687.986 375.27 687.507 374.612 687.239C372.564 686.144 370.376 685.112 369.363 682.786C368.965 682.029 368.709 681.205 368.61 680.355C368.268 675.436 367.203 670.547 367.806 665.594C367.91 663.784 368.235 661.993 368.774 660.262C371.507 653.533 373.249 646.442 373.947 639.21C373.992 638.906 374.017 638.601 374.022 638.294C373.94 632.044 373.864 625.787 373.795 619.524C373.763 617.514 373.908 615.321 373.914 613.271C373.897 611.613 373.609 609.949 373.642 608.3C373.702 605.807 373.922 603.331 374.103 600.836C374.199 599.368 374.336 597.898 374.422 596.419C374.501 595.784 374.348 595.141 373.99 594.609C373.632 594.077 373.094 593.692 372.476 593.524C370.273 592.725 368.126 591.78 366.047 590.697C363.37 589.21 361.706 587.004 362.415 583.677C362.582 582.81 362.214 581.841 362.25 580.946C362.332 578 362.505 575.063 362.568 572.117C362.636 569.533 362.634 566.94 362.591 564.348C362.451 562.419 362.735 560.483 363.424 558.677C364.114 556.871 365.191 555.239 366.581 553.896C367.768 552.646 368.672 551.155 369.233 549.524C370.583 546.403 371.277 543.037 371.272 539.634C371.36 537.042 371.668 534.462 372.191 531.922C372.788 527.22 373.394 522.507 373.971 517.825C374.061 516.812 374.082 515.795 374.031 514.779C374.015 513.774 374.287 513.227 375.482 513.159C376.677 513.091 378.216 512.565 379.6 512.403C380.276 512.402 380.948 512.5 381.595 512.695C381.777 512.732 381.95 512.9 382.121 512.908L388.428 513.204Z" fill="url(#paint1_linear_2:39)"/>
</g>
</g>
<defs>
<linearGradient id="paint0_linear_2:39" x1="257.878" y1="225.881" x2="563.188" y2="275.793" gradientUnits="userSpaceOnUse">
<stop offset="0.32" stop-color="#6D4C43"/>
<stop offset="0.43" stop-color="#897366"/>
<stop offset="0.57" stop-color="#594139"/>
</linearGradient>
<linearGradient id="paint1_linear_2:39" x1="399.771" y1="620.487" x2="371.375" y2="620.851" gradientUnits="userSpaceOnUse">
<stop stop-color="#3B3738"/>
<stop offset="0.53" stop-color="#453C3B"/>
<stop offset="0.98" stop-color="#3C3533"/>
</linearGradient>
</defs>
</svg>
