<svg width="768" height="768" viewBox="0 0 768 768" fill="none" xmlns="http://www.w3.org/2000/svg">
<g id="wizardinggamescampicon" clip-path="url(#clip0_2:39)">
<rect width="768" height="768" fill="white"/>
<g id="wand">
<path id="yellow-circle" d="M368.5 198C415.72 198 454 159.72 454 112.5C454 65.2797 415.72 27 368.5 27C321.28 27 283 65.2797 283 112.5C283 159.72 321.28 198 368.5 198Z" fill="#9C9C70" fill-opacity="0.15"/>
<path id="background-of-text" d="M374.11 568.785L360.732 569.383C360.978 553.356 361.218 537.329 361.452 521.302C361.411 520.591 361.524 519.879 361.783 519.216C362.042 518.552 362.44 517.952 362.952 517.457C365.227 515.53 370.365 516.525 374.984 520.946L374.11 568.785Z" fill="#B79E6B"/>
<path id="top-of-wand" d="M374.945 521.963C373.523 521.437 372.062 521.024 370.575 520.73C368.566 520.506 366.552 520.537 364.49 520.521C364.318 520.518 364.15 520.475 363.998 520.397C362.944 519.82 362.088 519.898 361.452 521.301C360.703 520.428 360.059 519.581 359.312 518.82C356.516 515.963 354.411 512.737 354.492 508.481C354.535 507.096 354.522 505.712 354.622 504.327C354.995 500.113 354.396 495.697 356.014 491.596C356.873 489.427 357.902 487.331 358.998 485.225C360.532 482.254 361.45 479.002 361.694 475.666C362.603 466.986 362.816 458.246 362.33 449.531C361.735 442.489 362.09 435.422 362.096 428.352C362.094 422.44 361.997 416.51 362.343 410.621C362.764 405.862 362.537 401.067 361.667 396.368C360.958 393.272 359.518 390.451 358.8 387.402C358.299 384.71 357.968 381.988 357.81 379.255C357.764 378.747 357.962 378.198 357.897 377.691C357.513 374.432 358.304 371.146 360.127 368.421C363.016 363.698 363.447 358.429 363.757 353.19C363.991 348.526 363.699 343.871 363.801 339.171C363.982 327.824 364.305 316.465 364.43 305.119C364.473 301.061 364.3 297.003 363.911 292.963C363.628 291.082 363.038 289.259 362.165 287.567C360.351 283.697 360.322 279.63 360.17 275.537C360.223 272.248 360.832 268.992 361.971 265.907C363.495 260.349 364.254 254.608 364.224 248.843C364.519 234.622 364.748 220.412 365.146 206.2C365.21 202.01 364.803 197.826 363.934 193.725C363.167 189.629 363.181 185.425 363.976 181.335C365.901 170.677 366.074 159.914 366.085 149.125C366.087 140.011 366.249 130.905 366.297 121.782C366.297 119.886 366.175 117.991 365.931 116.11C365.811 115.614 365.875 115.091 366.111 114.639C366.348 114.186 366.742 113.836 367.218 113.653C367.8 113.379 368.44 113.254 369.082 113.29C369.724 113.326 370.347 113.521 370.895 113.857C371.443 114.193 371.899 114.66 372.222 115.217C372.544 115.773 372.724 116.4 372.744 117.043C372.56 131.685 372.414 146.364 372.182 160.96C371.96 166.88 372.542 172.803 373.911 178.567C374.876 182.319 374.353 186.055 374.179 189.776C374.147 190.727 374.21 191.658 374.169 192.638C374.161 193.297 374.324 194.067 374.089 194.635C372.462 198.228 373.231 202.029 372.792 205.717C372.353 209.405 372.867 213.2 372.798 217.005C372.745 221.826 372.344 226.643 372.526 231.451C372.897 241.5 373.494 251.508 374.121 261.6C374.214 262.31 374.433 262.999 374.766 263.633C376.925 268.067 377.959 272.963 377.776 277.888C377.56 280.753 377.607 283.652 377.39 286.517C377.288 287.408 376.962 288.258 376.442 288.989C375.372 290.523 374.779 292.34 374.739 294.212L374.401 310.946C374.187 321.484 373.946 332.032 373.76 342.56C373.731 344.236 373.918 345.9 374.012 347.565C374.188 351.441 374.505 355.268 374.568 359.127C374.462 362.529 375.436 365.88 377.351 368.697C378.611 370.458 379.242 372.59 379.145 374.751C379.107 376.892 379.221 379.033 379.485 381.158C379.925 384.209 379.247 387.316 377.576 389.904C375.874 392.576 374.992 395.689 375.039 398.858C374.921 409.451 374.906 420.052 374.73 430.627C374.57 442.125 374.41 453.622 374.015 465.133C373.792 471.105 373.852 477.054 375.744 482.815C376.324 484.478 377.024 486.098 377.838 487.66C380.113 491.972 381.153 496.827 380.845 501.689C380.833 502.454 380.887 503.218 381.005 503.974C381.154 504.657 381.231 505.353 381.237 506.051C380.824 509.004 380.857 512.186 379.733 514.839C378.609 517.492 376.417 519.87 374.945 521.963Z" fill="url(#paint0_linear_2:39)"/>
<path id="bottom-of-wand" d="M374.017 567.713C374.623 573.673 375.127 579.125 375.761 584.557C376.119 589.106 376.769 593.628 377.706 598.094C378.593 601.149 380.017 604.023 381.912 606.579C383.978 609.493 385.144 612.948 385.266 616.517C385.406 619.32 385.198 622.138 385.3 624.942C385.43 628.292 385.815 631.628 385.916 634.969C385.848 636.289 385.626 637.598 385.255 638.867C384.975 640.133 383.823 640.517 382.853 641.078C382.205 641.471 381.531 641.821 380.836 642.125C375.917 644.139 376.83 642.967 376.751 648.504C376.703 651.885 377.229 655.247 376.03 658.532C375.987 658.709 375.981 658.892 376.011 659.071C376.042 659.251 376.108 659.422 376.208 659.574C377.703 661.209 377.083 663.016 376.793 664.847C376.429 666.118 376.357 667.454 376.584 668.757C377.571 671.567 376.998 674.513 377.139 677.391C377.216 679.226 377.153 681.11 377.155 682.964C377.219 683.437 377.211 683.916 377.131 684.386C375.671 688.918 377.791 693.066 378.511 697.357C378.644 698.161 378.942 698.93 379.386 699.613C383.007 705.141 383.992 711.245 383.966 717.742C384.136 720.823 383.674 723.906 382.608 726.8C382.293 727.449 381.839 728.022 381.28 728.477C379.906 729.703 378.418 730.818 377.055 732.072C375.691 733.326 375.749 735.142 376.135 736.849C377.793 744.356 380.614 751.559 384.496 758.197C385.46 759.782 386.275 761.453 386.932 763.188C387.768 765.406 387.302 766.27 385 767.096C381.221 768.592 377.212 769.426 373.149 769.563C367.126 769.673 361.123 769.34 355.433 766.79C354.812 766.55 354.217 766.246 353.657 765.885C351.876 764.622 351.48 763.405 352.426 761.413C353.373 759.422 354.649 757.435 355.85 755.468C359.486 749.291 361.857 742.451 362.826 735.347C362.894 734.875 362.877 734.395 362.907 733.924C363 733.266 362.87 732.595 362.538 732.019C362.206 731.442 361.691 730.992 361.075 730.742C359.157 729.716 357.107 728.749 356.158 726.57C355.785 725.861 355.546 725.089 355.453 724.293C355.133 719.685 354.135 715.106 354.699 710.465C354.797 708.77 355.102 707.093 355.606 705.471C358.166 699.167 359.799 692.525 360.452 685.75C360.494 685.466 360.518 685.179 360.523 684.892C360.446 679.038 360.375 673.177 360.31 667.309C360.28 665.427 360.415 663.372 360.422 661.452C360.406 659.899 360.135 658.34 360.167 656.795C360.223 654.46 360.429 652.141 360.598 649.803C360.689 648.427 360.817 647.051 360.898 645.666C360.971 645.07 360.828 644.468 360.492 643.97C360.157 643.471 359.654 643.111 359.074 642.954C357.011 642.205 354.999 641.32 353.052 640.306C350.544 638.913 348.985 636.846 349.65 633.729C349.806 632.917 349.461 632.009 349.495 631.171C349.572 628.411 349.734 625.66 349.793 622.9C349.856 620.48 349.854 618.051 349.815 615.623C349.683 613.816 349.949 612.003 350.595 610.311C351.241 608.619 352.25 607.09 353.552 605.832C354.664 604.66 355.511 603.264 356.036 601.736C357.301 598.812 357.951 595.659 357.947 592.472C358.029 590.043 358.317 587.627 358.808 585.247C359.366 580.842 359.934 576.428 360.474 572.042C360.56 571.093 360.579 570.14 360.531 569.188C360.516 568.247 360.771 567.735 361.89 567.671C363.01 567.607 364.451 567.114 365.748 566.963C366.381 566.961 367.011 567.053 367.617 567.236C367.787 567.271 367.949 567.428 368.11 567.435L374.017 567.713Z" fill="url(#paint1_linear_2:39)"/>
</g>
</g>
<defs>
<linearGradient id="paint0_linear_2:39" x1="251.723" y1="298.561" x2="537.726" y2="345.316" gradientUnits="userSpaceOnUse">
<stop offset="0.32" stop-color="#6D4C43"/>
<stop offset="0.43" stop-color="#897366"/>
<stop offset="0.57" stop-color="#594139"/>
</linearGradient>
<linearGradient id="paint1_linear_2:39" x1="384.643" y1="668.212" x2="358.043" y2="668.553" gradientUnits="userSpaceOnUse">
<stop stop-color="#3B3738"/>
<stop offset="0.53" stop-color="#453C3B"/>
<stop offset="0.98" stop-color="#3C3533"/>
</linearGradient>
<clipPath id="clip0_2:39">
<rect width="768" height="768" fill="white"/>
</clipPath>
</defs>
</svg>
