<svg width="208" height="207" viewBox="0 0 208 207" fill="none" xmlns="http://www.w3.org/2000/svg">
<path d="M129.7 68.36L117.85 63.28C117.339 63.0569 116.769 63.0075 116.227 63.1393C115.685 63.2712 115.201 63.577 114.85 64.01L109.64 70.36C101.414 66.4878 94.7898 59.8774 90.9 51.66L97.31 46.41C97.7457 46.0606 98.0536 45.5769 98.1857 45.0342C98.3177 44.4916 98.2665 43.9205 98.04 43.41L92.96 31.56C92.7213 31.015 92.3003 30.5701 91.7693 30.3019C91.2382 30.0336 90.6303 29.9587 90.05 30.09L79.05 32.63C78.4846 32.7549 77.9785 33.0685 77.615 33.5192C77.2515 33.9699 77.0523 34.5309 77.05 35.11C77.05 41.5561 78.3198 47.9391 80.787 53.8944C83.2541 59.8497 86.8702 65.2607 91.4287 69.8183C95.9873 74.3759 101.399 77.9909 107.355 80.4569C113.311 82.9228 119.694 84.1913 126.14 84.19C126.718 84.1873 127.277 83.9876 127.726 83.624C128.175 83.2604 128.487 82.7546 128.61 82.19L131.15 71.19C131.261 70.624 131.178 70.0371 130.915 69.5238C130.652 69.0105 130.224 68.6006 129.7 68.36Z" fill="#143251"/>
<path d="M104.16 203.46C159.239 203.46 203.89 158.809 203.89 103.73C203.89 48.6506 159.239 4 104.16 4C49.0806 4 4.42999 48.6506 4.42999 103.73C4.42999 158.809 49.0806 203.46 104.16 203.46Z" stroke="#143251" stroke-width="6.87" stroke-miterlimit="10"/>
</svg>
