<svg width="208" height="208" viewBox="0 0 208 208" fill="none" xmlns="http://www.w3.org/2000/svg">
<path d="M71.78 75.3499C71.7827 76.768 72.3472 78.1273 73.35 79.13C74.3527 80.1328 75.712 80.6973 77.1301 80.6999H130.63C132.049 80.6999 133.41 80.1363 134.413 79.1329C135.416 78.1296 135.98 76.7688 135.98 75.3499V55.7299H71.78V75.3499ZM93.1801 67.7899C93.1827 67.4353 93.3247 67.096 93.5754 66.8453C93.8262 66.5946 94.1655 66.4525 94.5201 66.4499H109.68C110.035 66.4525 110.374 66.5946 110.625 66.8453C110.875 67.096 111.017 67.4353 111.02 67.7899V72.2499C111.017 72.6045 110.875 72.9438 110.625 73.1946C110.374 73.4453 110.035 73.5873 109.68 73.5899H94.5201C94.1647 73.5899 93.8238 73.4487 93.5725 73.1974C93.3212 72.9462 93.1801 72.6053 93.1801 72.2499V67.7899ZM78.91 67.7899C78.9127 67.4353 79.0547 67.096 79.3054 66.8453C79.5562 66.5946 79.8955 66.4525 80.2501 66.4499H88.2501C88.4277 66.4473 88.6041 66.48 88.769 66.5461C88.9339 66.6123 89.084 66.7106 89.2105 66.8353C89.3371 66.96 89.4376 67.1086 89.5062 67.2725C89.5748 67.4364 89.6101 67.6123 89.61 67.7899V72.2499C89.605 72.595 89.4671 72.9249 89.2249 73.1708C88.9827 73.4167 88.655 73.5597 88.3101 73.5699H80.3101C79.9555 73.5673 79.6162 73.4253 79.3654 73.1746C79.1147 72.9238 78.9726 72.5845 78.97 72.2299L78.91 67.7899ZM135.98 36.1399V41.4899H71.78V36.1399C71.78 34.721 72.3437 33.3602 73.347 32.3569C74.3504 31.3536 75.7112 30.7899 77.1301 30.7899H130.63C131.331 30.7886 132.026 30.9254 132.674 31.1926C133.323 31.4597 133.912 31.852 134.409 32.3469C134.906 32.8418 135.3 33.4298 135.57 34.0772C135.839 34.7245 135.979 35.4187 135.98 36.1199V36.1399Z" fill="#143251"/>
<path d="M103.88 203.89C158.959 203.89 203.61 159.239 203.61 104.16C203.61 49.0806 158.959 4.42993 103.88 4.42993C48.8006 4.42993 4.15002 49.0806 4.15002 104.16C4.15002 159.239 48.8006 203.89 103.88 203.89Z" stroke="#143251" stroke-width="6.87" stroke-miterlimit="10"/>
</svg>
