<svg width="207" height="208" viewBox="0 0 207 208" fill="none" xmlns="http://www.w3.org/2000/svg">
<path d="M128.57 30.7H123.57V28.7C123.57 27.6391 123.149 26.6217 122.398 25.8715C121.648 25.1214 120.631 24.7 119.57 24.7C118.509 24.7 117.492 25.1214 116.742 25.8715C115.991 26.6217 115.57 27.6391 115.57 28.7V30.7H107.57V28.7C107.57 27.6391 107.149 26.6217 106.398 25.8715C105.648 25.1214 104.631 24.7 103.57 24.7C102.509 24.7 101.492 25.1214 100.742 25.8715C99.9914 26.6217 99.57 27.6391 99.57 28.7V30.7H91.57V28.7C91.57 27.6391 91.1486 26.6217 90.3984 25.8715C89.6483 25.1214 88.6309 24.7 87.57 24.7C86.5091 24.7 85.4917 25.1214 84.7416 25.8715C83.9914 26.6217 83.57 27.6391 83.57 28.7V30.7H78.57C77.2439 30.7 75.9722 31.2267 75.0345 32.1644C74.0968 33.1021 73.57 34.3739 73.57 35.7V75.7C73.57 77.026 74.0968 78.2978 75.0345 79.2355C75.9722 80.1732 77.2439 80.7 78.57 80.7H106.57C106.835 80.7 107.09 80.5946 107.277 80.4071C107.465 80.2195 107.57 79.9652 107.57 79.7C107.57 79.4347 107.465 79.1804 107.277 78.9928C107.09 78.8053 106.835 78.7 106.57 78.7H78.57C77.7744 78.7 77.0113 78.3839 76.4487 77.8213C75.8861 77.2587 75.57 76.4956 75.57 75.7V44.7H131.57V61.7C131.57 61.9652 131.675 62.2195 131.863 62.4071C132.05 62.5946 132.305 62.7 132.57 62.7C132.835 62.7 133.09 62.5946 133.277 62.4071C133.465 62.2195 133.57 61.9652 133.57 61.7V35.7C133.57 34.3739 133.043 33.1021 132.106 32.1644C131.168 31.2267 129.896 30.7 128.57 30.7ZM117.57 28.7C117.57 28.1695 117.781 27.6608 118.156 27.2857C118.531 26.9107 119.04 26.7 119.57 26.7C120.1 26.7 120.609 26.9107 120.984 27.2857C121.359 27.6608 121.57 28.1695 121.57 28.7V34.7C121.57 35.2304 121.359 35.7391 120.984 36.1142C120.609 36.4892 120.1 36.7 119.57 36.7C119.04 36.7 118.531 36.4892 118.156 36.1142C117.781 35.7391 117.57 35.2304 117.57 34.7V28.7ZM101.57 28.7C101.57 28.1695 101.781 27.6608 102.156 27.2857C102.531 26.9107 103.04 26.7 103.57 26.7C104.1 26.7 104.609 26.9107 104.984 27.2857C105.359 27.6608 105.57 28.1695 105.57 28.7V34.7C105.57 35.2304 105.359 35.7391 104.984 36.1142C104.609 36.4892 104.1 36.7 103.57 36.7C103.04 36.7 102.531 36.4892 102.156 36.1142C101.781 35.7391 101.57 35.2304 101.57 34.7V28.7ZM85.57 28.7C85.57 28.1695 85.7807 27.6608 86.1558 27.2857C86.5309 26.9107 87.0396 26.7 87.57 26.7C88.1004 26.7 88.6091 26.9107 88.9842 27.2857C89.3593 27.6608 89.57 28.1695 89.57 28.7V34.7C89.57 35.2304 89.3593 35.7391 88.9842 36.1142C88.6091 36.4892 88.1004 36.7 87.57 36.7C87.0396 36.7 86.5309 36.4892 86.1558 36.1142C85.7807 35.7391 85.57 35.2304 85.57 34.7V28.7ZM131.57 42.7H75.57V35.7C75.57 34.9043 75.8861 34.1412 76.4487 33.5786C77.0113 33.016 77.7744 32.7 78.57 32.7H83.57V34.7C83.57 35.7608 83.9914 36.7782 84.7416 37.5284C85.4917 38.2785 86.5091 38.7 87.57 38.7C88.6309 38.7 89.6483 38.2785 90.3984 37.5284C91.1486 36.7782 91.57 35.7608 91.57 34.7V32.7H99.57V34.7C99.57 35.7608 99.9914 36.7782 100.742 37.5284C101.492 38.2785 102.509 38.7 103.57 38.7C104.631 38.7 105.648 38.2785 106.398 37.5284C107.149 36.7782 107.57 35.7608 107.57 34.7V32.7H115.57V34.7C115.57 35.7608 115.991 36.7782 116.742 37.5284C117.492 38.2785 118.509 38.7 119.57 38.7C120.631 38.7 121.648 38.2785 122.398 37.5284C123.149 36.7782 123.57 35.7608 123.57 34.7V32.7H128.57C129.366 32.7 130.129 33.016 130.691 33.5786C131.254 34.1412 131.57 34.9043 131.57 35.7V42.7Z" fill="#8F9F67"/>
<path d="M101.59 51.6799C101.59 51.1495 101.379 50.6408 101.004 50.2657C100.629 49.8906 100.12 49.6799 99.59 49.6799H95.59C95.0595 49.6799 94.5508 49.8906 94.1758 50.2657C93.8007 50.6408 93.59 51.1495 93.59 51.6799V54.6799C93.59 55.2104 93.8007 55.7191 94.1758 56.0941C94.5508 56.4692 95.0595 56.6799 95.59 56.6799H99.59C100.12 56.6799 100.629 56.4692 101.004 56.0941C101.379 55.7191 101.59 55.2104 101.59 54.6799V51.6799ZM95.59 54.6799V51.6799H99.59V54.6799H95.59Z" fill="#8F9F67"/>
<path d="M89.6 51.6799C89.6 51.1495 89.3893 50.6408 89.0142 50.2657C88.6391 49.8906 88.1304 49.6799 87.6 49.6799H83.6C83.0695 49.6799 82.5608 49.8906 82.1858 50.2657C81.8107 50.6408 81.6 51.1495 81.6 51.6799V54.6799C81.6 55.2104 81.8107 55.7191 82.1858 56.0941C82.5608 56.4692 83.0695 56.6799 83.6 56.6799H87.6C88.1304 56.6799 88.6391 56.4692 89.0142 56.0941C89.3893 55.7191 89.6 55.2104 89.6 54.6799V51.6799ZM83.6 54.6799V51.6799H87.6V54.6799H83.6Z" fill="#8F9F67"/>
<path d="M123.58 56.6799C124.11 56.6799 124.619 56.4692 124.994 56.0941C125.369 55.7191 125.58 55.2104 125.58 54.6799V51.6799C125.58 51.1495 125.369 50.6408 124.994 50.2657C124.619 49.8906 124.11 49.6799 123.58 49.6799H119.58C119.05 49.6799 118.541 49.8906 118.166 50.2657C117.791 50.6408 117.58 51.1495 117.58 51.6799V54.6799C117.58 55.2104 117.791 55.7191 118.166 56.0941C118.541 56.4692 119.05 56.6799 119.58 56.6799H123.58ZM119.58 51.6799H123.58V54.6799H119.58V51.6799Z" fill="#8F9F67"/>
<path d="M101.59 60.6799C101.59 60.1495 101.379 59.6408 101.004 59.2657C100.629 58.8906 100.12 58.6799 99.59 58.6799H95.59C95.0595 58.6799 94.5508 58.8906 94.1758 59.2657C93.8007 59.6408 93.59 60.1495 93.59 60.6799V63.6799C93.59 64.2104 93.8007 64.7191 94.1758 65.0941C94.5508 65.4692 95.0595 65.6799 95.59 65.6799H99.59C100.12 65.6799 100.629 65.4692 101.004 65.0941C101.379 64.7191 101.59 64.2104 101.59 63.6799V60.6799ZM95.59 63.6799V60.6799H99.59V63.6799H95.59Z" fill="#8F9F67"/>
<path d="M89.6 60.6799C89.6 60.1495 89.3893 59.6408 89.0142 59.2657C88.6391 58.8906 88.1304 58.6799 87.6 58.6799H83.6C83.0695 58.6799 82.5608 58.8906 82.1858 59.2657C81.8107 59.6408 81.6 60.1495 81.6 60.6799V63.6799C81.6 64.2104 81.8107 64.7191 82.1858 65.0941C82.5608 65.4692 83.0695 65.6799 83.6 65.6799H87.6C88.1304 65.6799 88.6391 65.4692 89.0142 65.0941C89.3893 64.7191 89.6 64.2104 89.6 63.6799V60.6799ZM83.6 63.6799V60.6799H87.6V63.6799H83.6Z" fill="#8F9F67"/>
<path d="M99.59 67.6699H95.59C95.0595 67.6699 94.5508 67.8806 94.1758 68.2557C93.8007 68.6308 93.59 69.1395 93.59 69.6699V72.6699C93.59 73.2004 93.8007 73.7091 94.1758 74.0841C94.5508 74.4592 95.0595 74.6699 95.59 74.6699H99.59C100.12 74.6699 100.629 74.4592 101.004 74.0841C101.379 73.7091 101.59 73.2004 101.59 72.6699V69.6699C101.59 69.1395 101.379 68.6308 101.004 68.2557C100.629 67.8806 100.12 67.6699 99.59 67.6699ZM95.59 72.6699V69.6699H99.59V72.6699H95.59Z" fill="#8F9F67"/>
<path d="M107.59 56.6799H111.59C112.12 56.6799 112.629 56.4692 113.004 56.0941C113.379 55.7191 113.59 55.2104 113.59 54.6799V51.6799C113.59 51.1495 113.379 50.6408 113.004 50.2657C112.629 49.8906 112.12 49.6799 111.59 49.6799H107.59C107.06 49.6799 106.551 49.8906 106.176 50.2657C105.801 50.6408 105.59 51.1495 105.59 51.6799V54.6799C105.59 55.2104 105.801 55.7191 106.176 56.0941C106.551 56.4692 107.06 56.6799 107.59 56.6799ZM107.59 51.6799H111.59V54.6799H107.59V51.6799Z" fill="#8F9F67"/>
<path d="M105.59 63.6699C105.59 63.9326 105.642 64.1926 105.742 64.4353C105.843 64.6779 105.99 64.8984 106.176 65.0841C106.361 65.2699 106.582 65.4172 106.825 65.5177C107.067 65.6182 107.327 65.6699 107.59 65.6699C107.855 65.6699 108.11 65.5646 108.297 65.377C108.485 65.1895 108.59 64.9351 108.59 64.6699C108.59 64.4047 108.485 64.1504 108.297 63.9628C108.11 63.7753 107.855 63.6699 107.59 63.6699V60.6699H111.59C111.855 60.6699 112.11 60.5646 112.297 60.377C112.485 60.1895 112.59 59.9351 112.59 59.6699C112.59 59.4047 112.485 59.1504 112.297 58.9628C112.11 58.7753 111.855 58.6699 111.59 58.6699H107.59C107.06 58.6699 106.551 58.8806 106.176 59.2557C105.801 59.6308 105.59 60.1395 105.59 60.6699V63.6699Z" fill="#8F9F67"/>
<path d="M87.6 67.6699H83.6C83.0695 67.6699 82.5608 67.8806 82.1858 68.2557C81.8107 68.6308 81.6 69.1395 81.6 69.6699V72.6699C81.6 73.2004 81.8107 73.7091 82.1858 74.0841C82.5608 74.4592 83.0695 74.6699 83.6 74.6699H87.6C88.1304 74.6699 88.6391 74.4592 89.0142 74.0841C89.3893 73.7091 89.6 73.2004 89.6 72.6699V69.6699C89.6 69.1395 89.3893 68.6308 89.0142 68.2557C88.6391 67.8806 88.1304 67.6699 87.6 67.6699ZM83.6 72.6699V69.6699H87.6V72.6699H83.6Z" fill="#8F9F67"/>
<path d="M120.58 58.6799C118.009 58.6799 115.495 59.4424 113.358 60.8708C111.22 62.2993 109.553 64.3296 108.57 66.705C107.586 69.0805 107.328 71.6944 107.83 74.2161C108.331 76.7379 109.569 79.0542 111.388 80.8723C113.206 82.6904 115.522 83.9285 118.044 84.4301C120.566 84.9317 123.179 84.6743 125.555 83.6904C127.93 82.7064 129.961 81.0402 131.389 78.9023C132.818 76.7645 133.58 74.2511 133.58 71.6799C133.58 68.2321 132.21 64.9255 129.772 62.4875C127.334 60.0496 124.028 58.6799 120.58 58.6799ZM120.58 82.6799C118.404 82.6799 116.278 82.0348 114.469 80.8261C112.66 79.6174 111.25 77.8994 110.417 75.8895C109.585 73.8795 109.367 71.6677 109.791 69.5339C110.216 67.4001 111.263 65.4401 112.802 63.9018C114.34 62.3634 116.3 61.3157 118.434 60.8913C120.568 60.4669 122.779 60.6847 124.789 61.5173C126.799 62.3498 128.517 63.7597 129.726 65.5687C130.935 67.3776 131.58 69.5043 131.58 71.6799C131.575 74.5938 130.413 77.3866 128.351 79.4452C126.289 81.5038 123.494 82.6599 120.58 82.6599V82.6799Z" fill="#8F9F67"/>
<path d="M126.31 67.48L118.54 75.25L115.01 71.72C114.823 71.5317 114.569 71.4253 114.304 71.4244C114.038 71.4235 113.783 71.528 113.595 71.715C113.407 71.9019 113.3 72.1561 113.299 72.4214C113.299 72.6868 113.403 72.9417 113.59 73.13L117.83 77.37C117.923 77.4637 118.034 77.5381 118.155 77.5889C118.277 77.6396 118.408 77.6658 118.54 77.6658C118.672 77.6658 118.803 77.6396 118.925 77.5889C119.046 77.5381 119.157 77.4637 119.25 77.37L127.72 68.89C127.884 68.6987 127.969 68.4526 127.96 68.2009C127.95 67.9492 127.846 67.7105 127.668 67.5324C127.489 67.3543 127.251 67.25 126.999 67.2402C126.747 67.2305 126.501 67.3161 126.31 67.48Z" fill="#8F9F67"/>
<path d="M103.59 203.89C158.669 203.89 203.32 159.239 203.32 104.16C203.32 49.0806 158.669 4.42993 103.59 4.42993C48.5106 4.42993 3.85999 49.0806 3.85999 104.16C3.85999 159.239 48.5106 203.89 103.59 203.89Z" stroke="#8F9F67" stroke-width="6.87" stroke-miterlimit="10"/>
</svg>
