<svg width="207" height="208" viewBox="0 0 207 208" fill="none" xmlns="http://www.w3.org/2000/svg">
<path d="M137.05 30.8399H132.22V29.1899C132.236 28.8756 132.146 28.565 131.965 28.3077C131.783 28.0504 131.521 27.861 131.22 27.7699C127.877 26.8979 124.435 26.461 120.98 26.4699C115.31 26.4699 107.57 27.7399 101.85 33.5599C96.17 27.6899 88.37 26.4699 82.71 26.4699C79.2474 26.4658 75.7988 26.9095 72.45 27.7899C72.1497 27.8826 71.8886 28.0722 71.7076 28.3292C71.5267 28.5862 71.4361 28.8959 71.45 29.2099V30.7899H66.67C66.2934 30.7899 65.9322 30.9395 65.6659 31.2058C65.3996 31.4721 65.25 31.8333 65.25 32.2099V77.5899C65.2487 77.7768 65.2845 77.962 65.3554 78.1349C65.4263 78.3078 65.5308 78.4649 65.663 78.597C65.7951 78.7291 65.9522 78.8336 66.1251 78.9045C66.2979 78.9754 66.4832 79.0113 66.67 79.0099C66.8982 78.9904 67.1181 78.9149 67.31 78.7899C67.45 78.7199 81.65 70.9499 101.47 75.9499H101.81C101.923 75.9599 102.037 75.9599 102.15 75.9499C122.06 70.9499 136.31 78.6999 136.31 78.7899C136.527 78.9126 136.771 78.9771 137.02 78.9771C137.269 78.9771 137.514 78.9126 137.73 78.7899C137.944 78.6661 138.123 78.4884 138.247 78.2744C138.372 78.0604 138.438 77.8175 138.44 77.5699V32.2599C138.44 31.8885 138.295 31.5317 138.035 31.2663C137.775 31.0008 137.421 30.8478 137.05 30.8399ZM68.05 75.3299V33.6799H71.44V69.2899C71.4374 69.6648 71.583 70.0256 71.8453 70.2935C72.1076 70.5613 72.4652 70.7146 72.84 70.7199H73.07C76.0056 70.2688 78.9701 70.0315 81.94 70.0099C86.0616 69.9119 90.1698 70.5137 94.09 71.7899C85.2568 70.7347 76.3004 71.9533 68.07 75.3299H68.05ZM81.94 67.1699C79.3588 67.1764 76.7805 67.3434 74.22 67.6699V30.3099C76.9848 29.6962 79.808 29.3844 82.64 29.3799C87.95 29.3799 95.28 30.5999 100.36 36.3799V71.7499C97.47 69.7899 91.7 67.1699 81.96 67.1699H81.94ZM103.31 36.3299C108.39 30.6499 115.72 29.3799 121.03 29.3799C123.862 29.3893 126.684 29.7011 129.45 30.3099V67.6699C126.903 67.3401 124.338 67.1698 121.77 67.1599C112.03 67.1599 106.31 69.7899 103.31 71.6899V36.3299ZM135.67 75.3299C127.406 71.9349 118.409 70.7161 109.54 71.7899C113.468 70.4989 117.586 69.8802 121.72 69.9599C124.71 69.9698 127.694 70.2004 130.65 70.6499C130.835 70.6859 131.025 70.6845 131.209 70.6459C131.393 70.6073 131.568 70.5321 131.723 70.425C131.877 70.3178 132.009 70.1807 132.11 70.0219C132.211 69.863 132.279 69.6855 132.31 69.4999C132.32 69.4236 132.32 69.3463 132.31 69.2699V33.6799H135.7L135.67 75.3299Z" fill="#D9BA7C"/>
<path d="M103.6 203.89C158.679 203.89 203.33 159.239 203.33 104.16C203.33 49.0806 158.679 4.42993 103.6 4.42993C48.5206 4.42993 3.87 49.0806 3.87 104.16C3.87 159.239 48.5206 203.89 103.6 203.89Z" stroke="#D9BA7C" stroke-width="6.87" stroke-miterlimit="10"/>
</svg>
